<svg width="32" height="32" viewBox="0 0 32 32" fill="none" xmlns="http://www.w3.org/2000/svg">
<path d="M27.1039 8.58808L27.1038 8.58805L16.4731 3.25472L16.4719 3.25411C16.3565 3.19583 16.2291 3.16533 16.0999 3.16504C15.9706 3.16475 15.8431 3.19468 15.7274 3.25244L15.727 3.25265L5.02676 8.58478C5.02642 8.58495 5.02608 8.58512 5.02574 8.58529C4.77652 8.71158 4.60672 8.95159 4.57201 9.22427L4.57159 9.22756L4.57158 9.22755L4.57156 9.22777C4.57068 9.23518 4.54693 9.4348 4.53011 9.79348C4.51304 10.1577 4.50327 10.683 4.53148 11.3331C4.58793 12.6342 4.79625 14.4309 5.39936 16.4376C6.60286 20.442 9.38006 25.2944 15.7029 28.7325L15.7034 28.7328C15.8271 28.8003 15.966 28.835 16.1069 28.8337C16.2478 28.8324 16.3861 28.7951 16.5085 28.7254L16.51 28.7245C28.6401 21.8703 27.6069 9.74288 27.5597 9.25225L27.1039 8.58808ZM27.1039 8.58808C27.2298 8.65123 27.3376 8.74528 27.4174 8.86143C27.497 8.97746 27.546 9.11176 27.5597 9.25181L27.1039 8.58808Z" stroke="url(#paint0_linear)"/>
<path d="M12 16L15 19L21 13" stroke="url(#paint1_linear)"/>
<defs>
<linearGradient id="paint0_linear" x1="4.01367" y1="2.66504" x2="30.5447" y2="26.6267" gradientUnits="userSpaceOnUse">
<stop stop-color="#FF4E16"/>
<stop offset="0.458333" stop-color="#FF5A13"/>
<stop offset="1" stop-color="#FFB90F"/>
</linearGradient>
<linearGradient id="paint1_linear" x1="12" y1="13" x2="17.5385" y2="21.3077" gradientUnits="userSpaceOnUse">
<stop stop-color="#FF4E16"/>
<stop offset="0.458333" stop-color="#FF5A13"/>
<stop offset="1" stop-color="#FFB90F"/>
</linearGradient>
</defs>
</svg>
