<svg width="32" height="32" viewBox="0 0 32 32" fill="none" xmlns="http://www.w3.org/2000/svg">
<path d="M26.9418 8.84276L29.4599 6.39078C29.6676 8.25348 29.0635 10.1314 27.7637 11.5119C26.3521 12.9127 24.7641 12.537 23.5562 12.2362L23.5562 12.2362L23.5473 12.2341L23.1152 12.1348L22.8551 12.075L22.6607 12.2579C21.4565 13.3905 13.406 21.4409 12.3361 22.573L12.1477 22.7723L12.2145 23.0382C12.2332 23.1127 12.2504 23.2041 12.2703 23.3103C12.2819 23.3724 12.2945 23.4396 12.309 23.5114L12.3089 23.5114L12.3105 23.519C12.5792 24.7566 12.9008 26.3443 11.518 27.7236C10.3202 28.8847 8.71974 29.5 7.04897 29.5C6.81427 29.5 6.57767 29.4839 6.34329 29.4555L8.86427 26.9449L9.22003 26.5906L8.86427 26.2363L5.77313 23.158L5.42425 22.8105L5.07149 23.154L2.54623 25.613C2.31809 23.7548 2.94304 21.8735 4.24788 20.4867C5.69696 19.0787 7.22956 19.4301 8.46021 19.7282L8.47019 19.7306L8.48026 19.7326C8.63359 19.7632 8.75622 19.7936 8.88923 19.8268L9.1539 19.8927L9.35258 19.7058C10.5567 18.5732 18.6073 10.5228 19.6772 9.39068L19.8655 9.19142L19.7988 8.9255C19.7801 8.85102 19.7629 8.75956 19.743 8.65343C19.7314 8.59126 19.7187 8.52406 19.7043 8.45228L19.7044 8.45227L19.7027 8.44465C19.4344 7.20857 19.1132 5.62306 20.4905 4.24494C21.9056 2.95011 23.7869 2.32595 25.6692 2.54212L23.149 5.05188L22.7933 5.40617L23.149 5.76045L26.2402 8.83882L26.589 9.18626L26.9418 8.84276ZM5.5865 29.7346L5.52002 29.8014L5.5865 29.7346Z" stroke="url(#paint0_linear)"/>
<defs>
<linearGradient id="paint0_linear" x1="2" y1="2" x2="30" y2="30" gradientUnits="userSpaceOnUse">
<stop stop-color="#FF4E16"/>
<stop offset="0.458333" stop-color="#FF5A13"/>
<stop offset="1" stop-color="#FFB90F"/>
</linearGradient>
</defs>
</svg>
