<svg width="37" height="33" viewBox="0 0 37 33" fill="none" xmlns="http://www.w3.org/2000/svg">
<path d="M23.7385 14.7245C21.7863 15.4437 20.5773 16.4145 16.3826 20.4724C12.4008 24.3145 10.7348 25.3959 9.81073 24.6032C9.02677 23.9576 9.17221 23.0232 10.2004 21.7266C11.3006 20.3989 11.1605 20.0366 9.73866 20.7558C5.22774 23.1649 5.22774 29.8836 9.73866 32.1092C11.7996 33.1171 16.456 33.1488 19.5085 32.1827C23.2408 31.0331 26.9684 27.8367 28.8165 24.3145C29.2062 23.4901 29.2062 23.4536 28.0326 23.7053C26.8596 23.9569 26.8596 23.9569 27.4981 23.2384C28.5623 22.0524 32.1078 20.3463 34.5584 20.1311C36.8376 19.8841 37.0811 20.1783 36.983 19.9685C36.7288 19.4328 35.0989 17.0918 33.8218 16.1946C31.1671 14.3252 26.6194 13.6795 23.7385 14.7245Z" fill="white"/>
<path fill-rule="evenodd" clip-rule="evenodd" d="M1.17687 18.7083C2.16832 17.9892 4.87313 17.0919 7.07422 16.6979C7.99829 16.5562 9.28065 16.4092 9.91382 16.3721L11.0867 16.3356L8.95306 18.346C6.29027 20.8604 5.01325 23.3377 4.72769 26.6447L4.55088 29.0538L3.16512 27.5109C2.27708 26.5084 1.56584 25.1383 1.10414 23.6318C0.180071 20.5771 0.180074 19.3904 1.17687 18.7083ZM12.1202 1.17658C11.2329 1.75407 10.168 2.6149 9.73768 3.08175C8.56475 4.373 7.14228 7.50127 7.14228 8.75609C7.14228 10.0473 6.68058 10.1944 6.18218 9.08126C6.11302 8.92867 6.06825 8.79462 6.03204 8.6862C5.97907 8.52758 5.94442 8.4238 5.87847 8.397C5.75367 8.34628 5.5168 8.57131 4.83162 9.22222C4.69633 9.35074 4.54357 9.49587 4.37074 9.65875C2.98497 10.9183 0.747192 14.761 0.747192 15.8735C0.747192 16.2675 0.924002 16.2675 1.74399 15.837C3.62815 14.8663 7.14295 14.4358 10.0239 14.9027C15.4589 15.7271 16.6685 15.7271 19.2953 15.0815C22.4565 14.3259 26.4436 11.9896 26.6458 11.3649C26.6696 11.2851 26.1265 11.293 25.5388 11.3014C25.3511 11.3041 25.1589 11.3069 24.9791 11.3069C23.0583 11.3069 20.2187 9.764 18.6928 7.89526C17.8054 6.78279 16.9848 6.1682 15.9206 5.84842C15.1053 5.63321 14.358 5.38157 14.2493 5.27094C14.1405 5.1974 14.0004 4.01139 13.8963 2.64661L13.7195 0.132248L12.1202 1.17658ZM17.4151 9.04483C18.3392 10.1944 18.2304 10.3725 16.7766 9.83753C16.3249 9.59601 15.8992 9.50696 15.4996 9.43342C15.0632 9.35449 14.731 9.29715 14.3994 9.29715C13.0863 9.29715 12.8368 9.04551 13.8283 8.47275C15.0012 7.75359 16.6312 8.00522 17.4151 9.04483ZM15.6757 2.7566C14.8244 4.15781 14.7877 4.48366 15.4629 4.48366C15.7484 4.48366 16.2101 4.59363 16.5271 4.69887C16.9888 4.87765 17.0982 4.62533 17.0982 3.26055C17.0929 1.32368 16.6312 1.17661 15.6757 2.7566Z" fill="url(#paint0_linear)"/>
<defs>
<linearGradient id="paint0_linear" x1="0.419922" y1="29.0538" x2="29.2037" y2="2.95218" gradientUnits="userSpaceOnUse">
<stop stop-color="#FF4E16"/>
<stop offset="0.458333" stop-color="#FF5A13"/>
<stop offset="1" stop-color="#FFB90F"/>
</linearGradient>
</defs>
</svg>
