<svg width="164" height="164" viewBox="0 0 164 164" fill="white" xmlns="http://www.w3.org/2000/svg">
    <path d="M51.25 0H0V51.25H51.25V0ZM41 41H10.25V10.25H41V41Z"/>
    <path d="M30.75 20.5H20.5V30.75H30.75V20.5Z"/>
    <path d="M112.75 0V51.25H164V0H112.75ZM153.75 41H123V10.25H153.75V41Z"/>
    <path d="M143.5 20.5H133.25V30.75H143.5V20.5Z"/>
    <path d="M0 164H51.25V112.75H0V164ZM10.25 123H41V153.75H10.25V123Z"/>
    <path d="M30.75 133.25H20.5V143.5H30.75V133.25Z"/>
    <path d="M102.5 0H82V10.25H102.5V0Z"/>
    <path d="M82 41H92.25V30.75H102.5V20.5H71.75V10.25H61.5V20.5V25.625V30.75H82V41Z"/>
    <path d="M71.75 41H61.5V51.25H71.75V41Z"/>
    <path d="M102.5 51.25H92.25V61.5H61.5V71.75H102.5V51.25Z"/>
    <path d="M10.25 92.25H20.5V82H10.25V61.5H0V102.5H10.25V92.25Z"/>
    <path d="M30.75 61.5H20.5V71.75H30.75V61.5Z"/>
    <path d="M61.5 102.5H82V92.25H71.75V82H51.25V61.5H41V82H30.75V102.5H41V92.25H46.125H51.25H61.5V102.5Z"/>
    <path d="M102.5 82H92.25V102.5H102.5V82Z"/>
    <path d="M92.25 112.75H61.5V123H82V153.75H61.5V164H92.25V153.75H112.75V143.5H92.25V112.75Z"/>
    <path d="M71.75 133.25H61.5V143.5H71.75V133.25Z"/>
    <path d="M112.75 112.75H102.5V133.25H112.75V112.75Z"/>
    <path d="M153.75 133.25H123V164H133.25V143.5H153.75V133.25Z"/>
    <path d="M164 153.75H143.5V164H164V153.75Z"/>
    <path d="M164 112.75H153.75V123H164V112.75Z"/>
    <path d="M123 123H133.25V92.25H112.75V102.5H123V123Z"/>
    <path d="M143.5 71.75H133.25V61.5H123V71.75H112.75V82H153.75V71.75H164V61.5H143.5V71.75Z"/>
    <path d="M164 92.25H143.5V102.5H164V92.25Z"/>
</svg>
