<svg width="33" height="32" viewBox="0 0 33 32" fill="none" xmlns="http://www.w3.org/2000/svg">
<path d="M16.5 0C7.66129 0 0.5 7.16129 0.5 16C0.5 24.8387 7.66129 32 16.5 32C25.3387 32 32.5 24.8387 32.5 16C32.5 7.16129 25.3387 0 16.5 0ZM24.3581 10.9613L21.7323 23.3355C21.5387 24.2129 21.0161 24.4258 20.2871 24.0129L16.2871 21.0645L14.3581 22.9226C14.1452 23.1355 13.9645 23.3161 13.5516 23.3161L13.8355 19.2452L21.2484 12.5484C21.571 12.2645 21.1774 12.1032 20.7516 12.3871L11.5903 18.1548L7.64193 16.9226C6.78387 16.6516 6.76452 16.0645 7.82258 15.6516L23.2484 9.70323C23.9645 9.44516 24.5903 9.87742 24.3581 10.9613Z" fill="white"/>
</svg>
