<svg width="32" height="32" viewBox="0 0 32 32" fill="none" xmlns="http://www.w3.org/2000/svg">
<path d="M28.1949 24.6634C26.7602 25.933 24.681 26.8436 21.9571 27.3951C19.2333 27.9467 16.4263 28.108 13.5361 27.879L8.04678 32V26.8488C6.23782 26.2868 4.82391 25.5584 3.80507 24.6634C2.59909 23.602 1.66342 22.0774 0.998051 20.0898C0.332684 18.1021 0 16.0728 0 14.002C0 11.9311 0.332684 9.90179 0.998051 7.91415C1.66342 5.9265 2.60429 4.39675 3.82066 3.32488C5.03704 2.25301 6.77843 1.43089 9.04483 0.858537C11.3112 0.286179 13.6296 0 16 0C18.3704 0 20.6888 0.286179 22.9552 0.858537C25.2216 1.43089 26.963 2.25301 28.1793 3.32488C29.3957 4.39675 30.3366 5.9265 31.0019 7.91415C31.6673 9.90179 32 11.9311 32 14.002C32 16.0728 31.6673 18.1021 31.0019 20.0898C30.3366 22.0774 29.4009 23.602 28.1949 24.6634ZM19.9298 17.0146L21.9571 17.358C21.7908 14.8605 20.8291 12.7272 19.0721 10.958C17.3151 9.18894 15.1891 8.22114 12.694 8.05463L13.037 10.0839C14.8252 10.3128 16.3639 11.0725 17.653 12.3629C18.9422 13.6533 19.7011 15.2039 19.9298 17.0146ZM13.3801 12.1756L13.7544 14.4234C14.5861 14.8397 15.1995 15.4537 15.5945 16.2654L17.8402 16.64C17.5906 15.5369 17.0604 14.5847 16.2495 13.7834C15.4386 12.9821 14.4821 12.4462 13.3801 12.1756ZM10.0429 14.0176V12.0195C10.0429 11.6657 9.91293 11.3119 9.65302 10.958C9.39311 10.6042 9.11761 10.3493 8.82651 10.1932C8.53541 10.0371 8.31709 10.0215 8.17154 10.1463L6.73684 11.6137C5.92593 12.4254 5.80637 13.6898 6.37817 15.4068C6.94997 17.1239 8.04159 18.7889 9.65302 20.402C11.2645 22.015 12.9279 23.1076 14.6433 23.68C16.3587 24.2524 17.6114 24.1327 18.4016 23.321L19.8674 21.8537C20.013 21.7288 20.0078 21.5154 19.8519 21.2137C19.6959 20.9119 19.4412 20.6361 19.0877 20.3863C18.7342 20.1366 18.3808 20.0117 18.0273 20.0117H16.0312L14.8772 21.0107C13.9623 20.761 12.8239 19.9545 11.462 18.5912C10.1001 17.228 9.29435 16.078 9.04483 15.1415L10.0429 14.0176ZM12.039 4.02732L12.3509 6.05659C14.4301 6.09821 16.3535 6.64455 18.1209 7.69561C19.8882 8.74667 21.2917 10.1515 22.3314 11.9102C23.371 13.6689 23.922 15.5889 23.9844 17.6702L26.0117 18.0137C26.0117 16.1197 25.6426 14.3089 24.9045 12.5815C24.1663 10.854 23.1735 9.36585 21.9259 8.11707C20.6784 6.86829 19.1917 5.87447 17.4659 5.13561C15.7401 4.39675 13.9311 4.02732 12.039 4.02732Z" fill="url(#paint0_linear)"/>
<defs>
<linearGradient id="paint0_linear" x1="0" y1="0" x2="32" y2="32" gradientUnits="userSpaceOnUse">
<stop stop-color="#FF4E16"/>
<stop offset="0.458333" stop-color="#FF5A13"/>
<stop offset="1" stop-color="#FFB90F"/>
</linearGradient>
</defs>
</svg>
