<svg width="32" height="32" viewBox="0 0 32 32" fill="none" xmlns="http://www.w3.org/2000/svg">
<path d="M29.4077 12.4528C29.4077 13.1543 28.916 13.8821 27.9206 14.4622C26.9376 15.0351 25.5466 15.4055 23.9831 15.4055C22.4196 15.4055 21.0286 15.0351 20.0456 14.4622C19.0502 13.8821 18.5586 13.1543 18.5586 12.4528C18.5586 11.7512 19.0502 11.0234 20.0456 10.4433C21.0286 9.87038 22.4196 9.5 23.9831 9.5C25.5466 9.5 26.9376 9.87038 27.9206 10.4433C28.916 11.0234 29.4077 11.7512 29.4077 12.4528Z" stroke="url(#paint0_linear)"/>
<path d="M18.6475 19.5351V16.8286C18.8287 16.9858 19.0328 17.1355 19.2581 17.2746C20.3068 17.922 21.8848 18.3919 24.072 18.3919C26.2546 18.3919 27.8305 17.9518 28.8791 17.335C29.1082 17.2003 29.3157 17.0544 29.4999 16.9005V19.5351C29.4999 20.2369 29.0084 20.9643 28.0127 21.5438C27.0292 22.1163 25.6373 22.4861 24.072 22.4861C22.5084 22.4861 21.1174 22.1163 20.1344 21.5439C19.139 20.9643 18.6475 20.2369 18.6475 19.5351Z" stroke="url(#paint1_linear)"/>
<path d="M18.6475 26.5471V23.7598C18.8773 23.9514 19.1434 24.1343 19.4421 24.3033C20.5337 24.9208 22.1016 25.3759 24.072 25.3759C26.0459 25.3759 27.6161 24.906 28.7085 24.2737C29.0061 24.1015 29.271 23.9155 29.4999 23.7214V26.5471C29.4999 27.249 29.0083 27.9768 28.0125 28.5568C27.0291 29.1296 25.6372 29.4999 24.072 29.4999C22.5085 29.4999 21.1175 29.1297 20.1345 28.5568C19.1391 27.9768 18.6475 27.249 18.6475 26.5471Z" stroke="url(#paint2_linear)"/>
<path d="M15.6382 5.45275C15.6382 6.12208 15.0997 6.85462 13.9425 7.44954C12.8114 8.03104 11.2139 8.4055 9.42211 8.4055C7.63028 8.4055 6.03286 8.03104 4.90175 7.44954C3.74455 6.85462 3.20605 6.12208 3.20605 5.45275C3.20605 4.78342 3.74455 4.05088 4.90175 3.45596C6.03286 2.87446 7.63028 2.5 9.42211 2.5C11.2139 2.5 12.8114 2.87446 13.9425 3.45596C15.0997 4.05088 15.6382 4.78342 15.6382 5.45275Z" stroke="url(#paint3_linear)"/>
<path d="M3.41895 12.5351V9.74052C3.65541 9.93642 3.92964 10.1208 4.23711 10.2882C5.40818 10.9258 7.17507 11.3919 9.635 11.3919C12.0903 11.3919 13.8547 10.9551 15.025 10.3478C15.3357 10.1866 15.6134 10.0078 15.8528 9.81642V12.5351C15.8528 13.2048 15.3146 13.9368 14.1574 14.5312C13.0263 15.1122 11.4284 15.4861 9.635 15.4861C7.84336 15.4861 6.24589 15.1122 5.11471 14.5312C3.95745 13.9368 3.41895 13.2047 3.41895 12.5351Z" stroke="url(#paint4_linear)"/>
<path d="M3.41895 19.5474V16.6771C3.70548 16.9038 4.04882 17.1194 4.44229 17.3157C5.66373 17.9253 7.42125 18.3761 9.635 18.3761C11.8503 18.3761 13.6096 17.9108 14.8321 17.2865C15.2246 17.0861 15.567 16.8665 15.8528 16.6366V19.5474C15.8528 20.2171 15.3144 20.9496 14.1573 21.5444C13.0262 22.1258 11.4283 22.5001 9.635 22.5001C7.84344 22.5001 6.24602 22.1258 5.11483 21.5444C3.95757 20.9495 3.41895 20.217 3.41895 19.5474Z" stroke="url(#paint5_linear)"/>
<path d="M3.41895 26.5471V23.6769C3.70548 23.9035 4.04882 24.1191 4.44229 24.3155C5.66373 24.9251 7.42125 25.3759 9.635 25.3759C11.8503 25.3759 13.6096 24.9105 14.8321 24.2863C15.2246 24.0858 15.567 23.8663 15.8528 23.6364V26.5471C15.8528 27.2169 15.3144 27.9494 14.1573 28.5441C13.0262 29.1256 11.4283 29.4999 9.635 29.4999C7.84344 29.4999 6.24602 29.1256 5.11483 28.5441C3.95757 27.9493 3.41895 27.2168 3.41895 26.5471Z" stroke="url(#paint6_linear)"/>
<defs>
<linearGradient id="paint0_linear" x1="18.0586" y1="9" x2="24.0668" y2="19.3095" gradientUnits="userSpaceOnUse">
<stop stop-color="#FF4E16"/>
<stop offset="0.458333" stop-color="#FF5A13"/>
<stop offset="1" stop-color="#FFB90F"/>
</linearGradient>
<linearGradient id="paint1_linear" x1="18.1475" y1="15.0149" x2="25.5302" y2="25.9922" gradientUnits="userSpaceOnUse">
<stop stop-color="#FF4E16"/>
<stop offset="0.458333" stop-color="#FF5A13"/>
<stop offset="1" stop-color="#FFB90F"/>
</linearGradient>
<linearGradient id="paint2_linear" x1="18.1475" y1="22.0146" x2="25.548" y2="32.9992" gradientUnits="userSpaceOnUse">
<stop stop-color="#FF4E16"/>
<stop offset="0.458333" stop-color="#FF5A13"/>
<stop offset="1" stop-color="#FFB90F"/>
</linearGradient>
<linearGradient id="paint3_linear" x1="2.70605" y1="2" x2="8.32202" y2="12.9238" gradientUnits="userSpaceOnUse">
<stop stop-color="#FF4E16"/>
<stop offset="0.458333" stop-color="#FF5A13"/>
<stop offset="1" stop-color="#FFB90F"/>
</linearGradient>
<linearGradient id="paint4_linear" x1="2.91895" y1="8.01489" x2="9.91539" y2="19.8059" gradientUnits="userSpaceOnUse">
<stop stop-color="#FF4E16"/>
<stop offset="0.458333" stop-color="#FF5A13"/>
<stop offset="1" stop-color="#FFB90F"/>
</linearGradient>
<linearGradient id="paint5_linear" x1="2.91895" y1="15.0149" x2="9.93357" y2="26.8158" gradientUnits="userSpaceOnUse">
<stop stop-color="#FF4E16"/>
<stop offset="0.458333" stop-color="#FF5A13"/>
<stop offset="1" stop-color="#FFB90F"/>
</linearGradient>
<linearGradient id="paint6_linear" x1="2.91895" y1="22.0146" x2="9.93357" y2="33.8156" gradientUnits="userSpaceOnUse">
<stop stop-color="#FF4E16"/>
<stop offset="0.458333" stop-color="#FF5A13"/>
<stop offset="1" stop-color="#FFB90F"/>
</linearGradient>
</defs>
</svg>
