<svg width="32" height="32" viewBox="0 0 32 32" fill="none" xmlns="http://www.w3.org/2000/svg">
<path d="M6.42759 7.56725H26.5724C27.3259 7.56725 28 8.26316 28 9.04094V12.4795C28 13.2982 27.3259 13.9532 26.5724 13.9532H6.42759C5.63448 13.9532 5 13.2982 5 12.4795V9.04094C5 8.26316 5.63448 7.56725 6.42759 7.56725ZM26.2552 11.0877V10.4327C26.2552 10.1871 26.0172 9.94152 25.7793 9.94152H23.2414C22.9638 9.94152 22.7655 10.1871 22.7655 10.4327V11.0877C22.7655 11.3743 22.9638 11.5789 23.2414 11.5789H25.7793C26.0172 11.5789 26.2552 11.3743 26.2552 11.0877ZM6.42759 16.0994H26.5724C27.3259 16.0994 28 16.7544 28 17.5731V21.0117C28 21.8304 27.3259 22.4854 26.5724 22.4854H6.42759C5.63448 22.4854 5 21.8304 5 21.0117V17.5731C5 16.7544 5.63448 16.0994 6.42759 16.0994ZM26.2552 19.6199V18.9649C26.2552 18.7193 26.0172 18.4737 25.7793 18.4737H23.2414C22.9638 18.4737 22.7655 18.7193 22.7655 18.9649V19.6199C22.7655 19.9064 22.9638 20.1111 23.2414 20.1111H25.7793C26.0172 20.1111 26.2552 19.9064 26.2552 19.6199ZM6.42759 24.6316H26.5724C27.3259 24.6316 28 25.2865 28 26.1053V29.5439C28 30.3626 27.3259 31.0175 26.5724 31.0175H6.42759C5.63448 31.0175 5 30.3626 5 29.5439V26.1053C5 25.2865 5.63448 24.6316 6.42759 24.6316ZM26.2552 28.152V27.4971C26.2552 27.2105 26.0172 27.0058 25.7793 27.0058H23.2414C22.9638 27.0058 22.7655 27.2105 22.7655 27.4971V28.152C22.7655 28.4386 22.9638 28.6433 23.2414 28.6433H25.7793C26.0172 28.6433 26.2552 28.4386 26.2552 28.152ZM26.5724 5.46199H6.42759C6.18966 5.46199 5.95172 5.50292 5.75345 5.5848L8.17241 2.18713C8.64828 1.53216 9.67931 1 10.4724 1H22.5276C23.281 1 24.3121 1.53216 24.7879 2.18713L27.2466 5.5848C27.0086 5.50292 26.7707 5.46199 26.5724 5.46199Z" stroke="url(#paint0_linear)"/>
<defs>
<linearGradient id="paint0_linear" x1="5" y1="1" x2="33.9838" y2="23.208" gradientUnits="userSpaceOnUse">
<stop stop-color="#FF4E16"/>
<stop offset="0.458333" stop-color="#FF5A13"/>
<stop offset="1" stop-color="#FFB90F"/>
</linearGradient>
</defs>
</svg>
