<svg width="437" height="546" viewBox="0 0 437 546" fill="none" xmlns="http://www.w3.org/2000/svg">
<g clip-path="url(#clip0)">
<g opacity="0.19" filter="url(#filter0_f)">
<ellipse cx="184.096" cy="353.043" rx="109.096" ry="106.043" fill="url(#paint0_linear)"/>
<ellipse cx="184.096" cy="353.043" rx="109.096" ry="106.043" fill="url(#paint1_radial)" fill-opacity="0.7"/>
<ellipse cx="184.096" cy="353.043" rx="109.096" ry="106.043" fill="url(#paint2_radial)" fill-opacity="0.4"/>
</g>
<g opacity="0.19" filter="url(#filter1_f)">
<ellipse cx="293.096" cy="167.043" rx="109.096" ry="106.043" fill="url(#paint3_linear)"/>
<ellipse cx="293.096" cy="167.043" rx="109.096" ry="106.043" fill="url(#paint4_radial)" fill-opacity="0.7"/>
<ellipse cx="293.096" cy="167.043" rx="109.096" ry="106.043" fill="url(#paint5_radial)" fill-opacity="0.4"/>
</g>
<rect x="43" y="418" width="60" height="128" fill="black" fill-opacity="0.13"/>
<rect x="116" y="392" width="60" height="154" fill="black" fill-opacity="0.13"/>
<rect x="189" y="331" width="60" height="215" fill="black" fill-opacity="0.13"/>
<rect x="262" y="263" width="60" height="283" fill="black" fill-opacity="0.13"/>
<rect x="335" y="101" width="60" height="445" fill="black" fill-opacity="0.13"/>
<path d="M114.75 271.914V350.102H225.516" stroke="url(#paint6_linear)" stroke-width="3"/>
<path d="M127.781 337.07L140.812 324.039L153.844 330.555L166.875 317.523H179.906L192.938 304.492H205.969L219 284.945" stroke="url(#paint7_linear)" stroke-width="3"/>
<path d="M88.6875 221.273V361.648C88.6875 366.067 92.2692 369.648 96.6875 369.648H341.312C345.731 369.648 349.312 366.067 349.312 361.648V221.273C349.312 216.855 345.731 213.273 341.312 213.273H96.6875C92.2692 213.273 88.6875 216.855 88.6875 221.273Z" stroke="url(#paint8_linear)" stroke-width="3"/>
<path d="M179.906 182.18V213.273H258.094V182.18C258.094 177.761 254.512 174.18 250.094 174.18H187.906C183.488 174.18 179.906 177.761 179.906 182.18Z" stroke="url(#paint9_linear)" stroke-width="3"/>
<path d="M199.453 195.727V213.273H238.547V195.727C238.547 194.622 237.651 193.727 236.547 193.727H201.453C200.349 193.727 199.453 194.622 199.453 195.727Z" stroke="url(#paint10_linear)" stroke-width="3"/>
<path d="M88.6875 221.273V249.398C88.6875 258.235 95.8509 265.398 104.687 265.398H333.312C342.149 265.398 349.312 258.235 349.312 249.398V221.273C349.312 216.855 345.731 213.273 341.312 213.273H96.6875C92.2692 213.273 88.6875 216.855 88.6875 221.273Z" stroke="url(#paint11_linear)" stroke-width="3"/>
<circle cx="290.672" cy="324.039" r="26.0625" stroke="url(#paint12_linear)" stroke-width="3"/>
<path d="M316.734 324.039C316.734 329.194 315.206 334.233 312.342 338.519C309.478 342.805 305.408 346.145 300.646 348.118C295.883 350.09 290.643 350.606 285.587 349.601C280.532 348.595 275.888 346.113 272.243 342.468C268.598 338.823 266.116 334.179 265.11 329.124C264.105 324.068 264.621 318.828 266.593 314.065C268.566 309.303 271.906 305.233 276.192 302.369C280.478 299.505 285.517 297.977 290.672 297.977L290.672 324.039H316.734Z" stroke="url(#paint13_linear)" stroke-width="3"/>
<circle cx="223.344" cy="242.594" r="8.6875" stroke="url(#paint14_linear)" stroke-width="3"/>
</g>
<defs>
<filter id="filter0_f" x="-97" y="75" width="562.192" height="556.085" filterUnits="userSpaceOnUse" color-interpolation-filters="sRGB">
<feFlood flood-opacity="0" result="BackgroundImageFix"/>
<feBlend mode="normal" in="SourceGraphic" in2="BackgroundImageFix" result="shape"/>
<feGaussianBlur stdDeviation="86" result="effect1_foregroundBlur"/>
</filter>
<filter id="filter1_f" x="12" y="-111" width="562.192" height="556.085" filterUnits="userSpaceOnUse" color-interpolation-filters="sRGB">
<feFlood flood-opacity="0" result="BackgroundImageFix"/>
<feBlend mode="normal" in="SourceGraphic" in2="BackgroundImageFix" result="shape"/>
<feGaussianBlur stdDeviation="86" result="effect1_foregroundBlur"/>
</filter>
<linearGradient id="paint0_linear" x1="88.7187" y1="261.605" x2="276.336" y2="464.406" gradientUnits="userSpaceOnUse">
<stop stop-color="#FF2416"/>
<stop offset="0.453125" stop-color="#9FE707"/>
<stop offset="0.895833" stop-color="#FF4E16"/>
</linearGradient>
<radialGradient id="paint1_radial" cx="0" cy="0" r="1" gradientUnits="userSpaceOnUse" gradientTransform="translate(164.171 332.723) rotate(81.0394) scale(127.923 131.431)">
<stop stop-color="#111111" stop-opacity="0"/>
<stop offset="0.697917" stop-color="#111111" stop-opacity="0"/>
<stop offset="1" stop-color="#111111"/>
</radialGradient>
<radialGradient id="paint2_radial" cx="0" cy="0" r="1" gradientUnits="userSpaceOnUse" gradientTransform="translate(166.458 330.183) rotate(82.2083) scale(130.103 133.714)">
<stop stop-color="#FFD913"/>
<stop offset="0.505208" stop-color="#FFD913" stop-opacity="0"/>
</radialGradient>
<linearGradient id="paint3_linear" x1="197.719" y1="75.6047" x2="385.336" y2="278.406" gradientUnits="userSpaceOnUse">
<stop stop-color="#FF1694"/>
<stop offset="0.453125" stop-color="#E70707"/>
<stop offset="0.895833" stop-color="#E7C307" stop-opacity="0"/>
</linearGradient>
<radialGradient id="paint4_radial" cx="0" cy="0" r="1" gradientUnits="userSpaceOnUse" gradientTransform="translate(273.171 146.723) rotate(81.0394) scale(127.923 131.431)">
<stop stop-color="#111111" stop-opacity="0"/>
<stop offset="0.697917" stop-color="#111111" stop-opacity="0"/>
<stop offset="1" stop-color="#111111"/>
</radialGradient>
<radialGradient id="paint5_radial" cx="0" cy="0" r="1" gradientUnits="userSpaceOnUse" gradientTransform="translate(275.458 144.183) rotate(82.2083) scale(130.103 133.714)">
<stop stop-color="#FFD913"/>
<stop offset="0.505208" stop-color="#FFD913" stop-opacity="0"/>
</radialGradient>
<linearGradient id="paint6_linear" x1="114.75" y1="271.914" x2="188.423" y2="376.284" gradientUnits="userSpaceOnUse">
<stop stop-color="#FF4E16"/>
<stop offset="0.458333" stop-color="#FF5A13"/>
<stop offset="1" stop-color="#FFB90F"/>
</linearGradient>
<linearGradient id="paint7_linear" x1="127.781" y1="284.945" x2="172.689" y2="363.534" gradientUnits="userSpaceOnUse">
<stop stop-color="#FF4E16"/>
<stop offset="0.458333" stop-color="#FF5A13"/>
<stop offset="1" stop-color="#FFB90F"/>
</linearGradient>
<linearGradient id="paint8_linear" x1="88.6875" y1="213.273" x2="226.665" y2="443.237" gradientUnits="userSpaceOnUse">
<stop stop-color="#FF4E16"/>
<stop offset="0.458333" stop-color="#FF5A13"/>
<stop offset="1" stop-color="#FFB90F"/>
</linearGradient>
<linearGradient id="paint9_linear" x1="179.906" y1="174.18" x2="211.181" y2="236.73" gradientUnits="userSpaceOnUse">
<stop stop-color="#FF4E16"/>
<stop offset="0.458333" stop-color="#FF5A13"/>
<stop offset="1" stop-color="#FFB90F"/>
</linearGradient>
<linearGradient id="paint10_linear" x1="199.453" y1="193.727" x2="215.091" y2="225.002" gradientUnits="userSpaceOnUse">
<stop stop-color="#FF4E16"/>
<stop offset="0.458333" stop-color="#FF5A13"/>
<stop offset="1" stop-color="#FFB90F"/>
</linearGradient>
<linearGradient id="paint11_linear" x1="88.6875" y1="213.273" x2="108.736" y2="313.514" gradientUnits="userSpaceOnUse">
<stop stop-color="#FF4E16"/>
<stop offset="0.458333" stop-color="#FF5A13"/>
<stop offset="1" stop-color="#FFB90F"/>
</linearGradient>
<linearGradient id="paint12_linear" x1="264.609" y1="297.977" x2="316.734" y2="350.102" gradientUnits="userSpaceOnUse">
<stop stop-color="#FF4E16"/>
<stop offset="0.458333" stop-color="#FF5A13"/>
<stop offset="1" stop-color="#FFB90F"/>
</linearGradient>
<linearGradient id="paint13_linear" x1="264.609" y1="297.977" x2="316.734" y2="350.102" gradientUnits="userSpaceOnUse">
<stop stop-color="#FF4E16"/>
<stop offset="0.458333" stop-color="#FF5A13"/>
<stop offset="1" stop-color="#FFB90F"/>
</linearGradient>
<linearGradient id="paint14_linear" x1="214.656" y1="233.906" x2="232.031" y2="251.281" gradientUnits="userSpaceOnUse">
<stop stop-color="#FF4E16"/>
<stop offset="0.458333" stop-color="#FF5A13"/>
<stop offset="1" stop-color="#FFB90F"/>
</linearGradient>
<clipPath id="clip0">
<rect width="437" height="546" fill="white"/>
</clipPath>
</defs>
</svg>
