<svg width="32" height="32" viewBox="0 0 32 32" fill="none" xmlns="http://www.w3.org/2000/svg">
<path d="M6.16699 21.3334V28.8334H3.16699V23.3334V23.3333C3.16676 22.3066 3.5456 21.316 4.23084 20.5514C4.80315 19.9129 5.55554 19.4696 6.38257 19.2757C6.27209 19.7939 6.20369 20.3207 6.17823 20.8508L6.17808 20.8508L6.17779 20.8631L6.16713 21.3218L6.16699 21.3218V21.3334ZM16.0003 15.1667C17.6358 15.1667 19.2043 15.8164 20.3608 16.9729C21.5173 18.1294 22.167 19.6979 22.167 21.3334V28.8334H9.83366V21.3334C9.83366 19.6979 10.4834 18.1294 11.6398 16.9729C12.7963 15.8164 14.3648 15.1667 16.0003 15.1667ZM28.8337 23.3335V28.8334H25.8337V21.3334C25.8337 20.6284 25.7599 19.9403 25.6185 19.2765C26.4106 19.4625 27.1364 19.8777 27.701 20.4777C28.4284 21.2507 28.8335 22.272 28.8337 23.3334C28.8337 23.3334 28.8337 23.3335 28.8337 23.3335ZM7.33366 11.1667C8.08511 11.1667 8.80578 11.4653 9.33713 11.9966C9.86848 12.528 10.167 13.2486 10.167 14.0001C10.167 14.7515 9.86848 15.4722 9.33713 16.0036C8.80578 16.5349 8.08511 16.8334 7.33366 16.8334C6.58221 16.8334 5.86154 16.5349 5.33019 16.0036C4.79884 15.4722 4.50033 14.7515 4.50033 14.0001C4.50033 13.2486 4.79884 12.528 5.33019 11.9966C5.86154 11.4653 6.58221 11.1667 7.33366 11.1667ZM24.667 11.1667C25.4184 11.1667 26.1391 11.4653 26.6705 11.9966C27.2018 12.528 27.5003 13.2486 27.5003 14.0001C27.5003 14.7515 27.2018 15.4722 26.6705 16.0036C26.1391 16.5349 25.4184 16.8334 24.667 16.8334C23.9155 16.8334 23.1949 16.5349 22.6635 16.0036C22.1322 15.4722 21.8337 14.7515 21.8337 14.0001C21.8337 13.2486 22.1322 12.528 22.6635 11.9966C23.1949 11.4653 23.9155 11.1667 24.667 11.1667ZM16.0003 3.16675C17.2822 3.16675 18.5116 3.67597 19.418 4.5824C20.3244 5.48882 20.8337 6.7182 20.8337 8.00008C20.8337 9.28196 20.3244 10.5113 19.418 11.4178C18.5116 12.3242 17.2822 12.8334 16.0003 12.8334C14.7184 12.8334 13.4891 12.3242 12.5826 11.4178C11.6762 10.5113 11.167 9.28196 11.167 8.00008C11.167 6.7182 11.6762 5.48882 12.5826 4.5824C13.4891 3.67597 14.7184 3.16675 16.0003 3.16675Z" stroke="url(#paint0_linear)"/>
<defs>
<linearGradient id="paint0_linear" x1="2.66699" y1="2.66675" x2="29.3337" y2="29.3334" gradientUnits="userSpaceOnUse">
<stop stop-color="#FF4E16"/>
<stop offset="0.458333" stop-color="#FF5A13"/>
<stop offset="1" stop-color="#FFB90F"/>
</linearGradient>
</defs>
</svg>
