<svg width="33" height="32" viewBox="0 0 33 32" fill="none" xmlns="http://www.w3.org/2000/svg">
<g clip-path="url(#clip0)">
<path d="M28.6949 24.6634C27.2602 25.933 25.181 26.8436 22.4571 27.3951C19.7333 27.9467 16.9263 28.108 14.0361 27.879L8.54678 32V26.8488C6.73782 26.2868 5.32391 25.5584 4.30507 24.6634C3.09909 23.602 2.16342 22.0774 1.49805 20.0898C0.832684 18.1021 0.5 16.0728 0.5 14.002C0.5 11.9311 0.832684 9.90179 1.49805 7.91415C2.16342 5.9265 3.10429 4.39675 4.32066 3.32488C5.53704 2.25301 7.27843 1.43089 9.54483 0.858537C11.8112 0.286179 14.1296 0 16.5 0C18.8704 0 21.1888 0.286179 23.4552 0.858537C25.7216 1.43089 27.463 2.25301 28.6793 3.32488C29.8957 4.39675 30.8366 5.9265 31.5019 7.91415C32.1673 9.90179 32.5 11.9311 32.5 14.002C32.5 16.0728 32.1673 18.1021 31.5019 20.0898C30.8366 22.0774 29.9009 23.602 28.6949 24.6634ZM20.4298 17.0146L22.4571 17.358C22.2908 14.8605 21.3291 12.7272 19.5721 10.958C17.8151 9.18894 15.6891 8.22114 13.194 8.05463L13.537 10.0839C15.3252 10.3128 16.8639 11.0725 18.153 12.3629C19.4422 13.6533 20.2011 15.2039 20.4298 17.0146ZM13.8801 12.1756L14.2544 14.4234C15.0861 14.8397 15.6995 15.4537 16.0945 16.2654L18.3402 16.64C18.0906 15.5369 17.5604 14.5847 16.7495 13.7834C15.9386 12.9821 14.9821 12.4462 13.8801 12.1756ZM10.5429 14.0176V12.0195C10.5429 11.6657 10.4129 11.3119 10.153 10.958C9.89311 10.6042 9.61761 10.3493 9.32651 10.1932C9.03541 10.0371 8.81709 10.0215 8.67154 10.1463L7.23684 11.6137C6.42593 12.4254 6.30637 13.6898 6.87817 15.4068C7.44997 17.1239 8.54159 18.7889 10.153 20.402C11.7645 22.015 13.4279 23.1076 15.1433 23.68C16.8587 24.2524 18.1114 24.1327 18.9016 23.321L20.3674 21.8537C20.513 21.7288 20.5078 21.5154 20.3519 21.2137C20.1959 20.9119 19.9412 20.6361 19.5877 20.3863C19.2342 20.1366 18.8808 20.0117 18.5273 20.0117H16.5312L15.3772 21.0107C14.4623 20.761 13.3239 19.9545 11.962 18.5912C10.6001 17.228 9.79435 16.078 9.54483 15.1415L10.5429 14.0176ZM12.539 4.02732L12.8509 6.05659C14.9301 6.09821 16.8535 6.64455 18.6209 7.69561C20.3882 8.74667 21.7917 10.1515 22.8314 11.9102C23.871 13.6689 24.422 15.5889 24.4844 17.6702L26.5117 18.0137C26.5117 16.1197 26.1426 14.3089 25.4045 12.5815C24.6663 10.854 23.6735 9.36585 22.4259 8.11707C21.1784 6.86829 19.6917 5.87447 17.9659 5.13561C16.2401 4.39675 14.4311 4.02732 12.539 4.02732Z" fill="white"/>
</g>
<defs>
<clipPath id="clip0">
<rect width="32" height="32" fill="white" transform="translate(0.5)"/>
</clipPath>
</defs>
</svg>
