<svg width="32" height="32" viewBox="0 0 32 32" fill="none" xmlns="http://www.w3.org/2000/svg">
<path d="M1.30005 7.88281H30.4597V24.1169H1.30005V7.88281Z" stroke="url(#paint0_linear)"/>
<path d="M3.38501 10.8301H6.83182" stroke="url(#paint1_linear)"/>
<path d="M3.38501 21.1699H6.83182" stroke="url(#paint2_linear)"/>
<path d="M24.9277 21.1699H28.3745" stroke="url(#paint3_linear)"/>
<path d="M24.9277 10.8301H28.3745" stroke="url(#paint4_linear)"/>
<path d="M20.1192 16.0003C20.1192 18.5796 18.0283 20.6705 15.449 20.6705C12.8697 20.6705 10.7788 18.5796 10.7788 16.0003C10.7788 13.421 12.8697 11.3301 15.449 11.3301C18.0283 11.3301 20.1192 13.421 20.1192 16.0003Z" stroke="url(#paint5_linear)"/>
<defs>
<linearGradient id="paint0_linear" x1="0.800049" y1="7.38281" x2="15.6479" y2="33.3665" gradientUnits="userSpaceOnUse">
<stop stop-color="#FF4E16"/>
<stop offset="0.458333" stop-color="#FF5A13"/>
<stop offset="1" stop-color="#FFB90F"/>
</linearGradient>
<linearGradient id="paint1_linear" x1="3.38501" y1="10.8301" x2="3.92021" y2="12.6748" gradientUnits="userSpaceOnUse">
<stop stop-color="#FF4E16"/>
<stop offset="0.458333" stop-color="#FF5A13"/>
<stop offset="1" stop-color="#FFB90F"/>
</linearGradient>
<linearGradient id="paint2_linear" x1="3.38501" y1="21.1699" x2="3.92021" y2="23.0146" gradientUnits="userSpaceOnUse">
<stop stop-color="#FF4E16"/>
<stop offset="0.458333" stop-color="#FF5A13"/>
<stop offset="1" stop-color="#FFB90F"/>
</linearGradient>
<linearGradient id="paint3_linear" x1="24.9277" y1="21.1699" x2="25.4629" y2="23.0146" gradientUnits="userSpaceOnUse">
<stop stop-color="#FF4E16"/>
<stop offset="0.458333" stop-color="#FF5A13"/>
<stop offset="1" stop-color="#FFB90F"/>
</linearGradient>
<linearGradient id="paint4_linear" x1="24.9277" y1="10.8301" x2="25.4629" y2="12.6748" gradientUnits="userSpaceOnUse">
<stop stop-color="#FF4E16"/>
<stop offset="0.458333" stop-color="#FF5A13"/>
<stop offset="1" stop-color="#FFB90F"/>
</linearGradient>
<linearGradient id="paint5_linear" x1="10.2788" y1="10.8301" x2="20.6192" y2="21.1705" gradientUnits="userSpaceOnUse">
<stop stop-color="#FF4E16"/>
<stop offset="0.458333" stop-color="#FF5A13"/>
<stop offset="1" stop-color="#FFB90F"/>
</linearGradient>
</defs>
</svg>
