<svg width="16" height="16" viewBox="0 0 16 16" fill="none" xmlns="http://www.w3.org/2000/svg">
<path d="M8.0002 0.888672C6.61585 0.889828 5.2882 1.43875 4.30723 2.41556C3.32626 3.39236 2.77169 4.71767 2.76465 6.10201C2.76465 8.17756 3.92909 9.91534 4.78243 11.182L4.93798 11.4131C5.78699 12.6436 6.69779 13.8303 7.66687 14.9687L8.00465 15.3642L8.34243 14.9687C9.31138 13.8302 10.2222 12.6435 11.0713 11.4131L11.2269 11.1776C12.0758 9.91089 13.2402 8.17756 13.2402 6.10201C13.2332 4.7169 12.678 3.39092 11.696 2.41399C10.7141 1.43706 9.38533 0.888654 8.0002 0.888672ZM8.0002 8.44423C7.42356 8.44423 6.85987 8.27323 6.38041 7.95287C5.90095 7.6325 5.52725 7.17716 5.30658 6.64441C5.08591 6.11166 5.02817 5.52544 5.14067 4.95988C5.25317 4.39431 5.53085 3.87481 5.93859 3.46706C6.34634 3.05932 6.86584 2.78164 7.43141 2.66914C7.99697 2.55664 8.58319 2.61438 9.11594 2.83505C9.64869 3.05572 10.104 3.42942 10.4244 3.90888C10.7448 4.38834 10.9158 4.95203 10.9158 5.52867C10.9158 6.30193 10.6086 7.04351 10.0618 7.59028C9.51504 8.13705 8.77346 8.44423 8.0002 8.44423Z" fill="white"/>
<path d="M8.00031 7.18665C8.91587 7.18665 9.65808 6.44444 9.65808 5.52887C9.65808 4.61331 8.91587 3.87109 8.00031 3.87109C7.08474 3.87109 6.34253 4.61331 6.34253 5.52887C6.34253 6.44444 7.08474 7.18665 8.00031 7.18665Z" fill="white"/>
</svg>
