<svg width="37" height="33" viewBox="0 0 37 33" fill="none" xmlns="http://www.w3.org/2000/svg">
<path d="M23.7385 14.7245C21.7863 15.4437 20.5773 16.4145 16.3826 20.4724C12.4008 24.3145 10.7348 25.3959 9.81073 24.6032C9.02677 23.9576 9.17221 23.0232 10.2004 21.7266C11.3006 20.3989 11.1605 20.0366 9.73866 20.7558C5.22774 23.1649 5.22774 29.8836 9.73866 32.1092C11.7996 33.1171 16.456 33.1488 19.5085 32.1827C23.2408 31.0331 26.9684 27.8367 28.8165 24.3145C29.2062 23.4901 29.2062 23.4536 28.0326 23.7053C26.8596 23.9569 26.8596 23.9569 27.4981 23.2384C28.5623 22.0524 32.1078 20.3463 34.5584 20.1311C36.8376 19.8841 37.0811 20.1783 36.983 19.9685C36.7288 19.4328 35.0989 17.0918 33.8218 16.1946C31.1671 14.3252 26.6194 13.6795 23.7385 14.7245Z" fill="url(#paint0_linear)"/>
<path fill-rule="evenodd" clip-rule="evenodd" d="M1.17687 18.7082C2.16832 17.989 4.87313 17.0918 7.07422 16.6978C7.99829 16.5561 9.28065 16.409 9.91382 16.3719L11.0867 16.3355L8.95306 18.3459C6.29027 20.8603 5.01325 23.3375 4.72769 26.6446L4.55088 29.0537L3.16512 27.5108C2.27708 26.5083 1.56584 25.1381 1.10414 23.6317C0.180071 20.5769 0.180074 19.3903 1.17687 18.7082ZM12.1202 1.17646C11.2329 1.75394 10.168 2.61478 9.73768 3.08162C8.56475 4.37287 7.14228 7.50115 7.14228 8.75597C7.14228 10.0472 6.68058 10.1943 6.18218 9.08114C6.11302 8.92855 6.06825 8.7945 6.03204 8.68607C5.97907 8.52746 5.94442 8.42368 5.87847 8.39688C5.75367 8.34616 5.5168 8.57118 4.83162 9.2221C4.69633 9.35062 4.54357 9.49574 4.37074 9.65863C2.98497 10.9182 0.747192 14.7609 0.747192 15.8734C0.747192 16.2673 0.924002 16.2673 1.74399 15.8369C3.62815 14.8661 7.14295 14.4357 10.0239 14.9026C15.4589 15.727 16.6685 15.727 19.2953 15.0813C22.4565 14.3257 26.4436 11.9895 26.6458 11.3648C26.6696 11.285 26.1265 11.2928 25.5388 11.3013C25.3511 11.304 25.1589 11.3068 24.9791 11.3068C23.0583 11.3068 20.2187 9.76387 18.6928 7.89514C17.8054 6.78267 16.9848 6.16807 15.9206 5.8483C15.1053 5.63309 14.358 5.38145 14.2493 5.27081C14.1405 5.19728 14.0004 4.01127 13.8963 2.64649L13.7195 0.132126L12.1202 1.17646ZM17.4151 9.04471C18.3392 10.1943 18.2304 10.3724 16.7766 9.83741C16.3249 9.59589 15.8992 9.50684 15.4996 9.4333C15.0632 9.35437 14.731 9.29703 14.3994 9.29703C13.0863 9.29703 12.8368 9.04539 13.8283 8.47262C15.0012 7.75346 16.6312 8.0051 17.4151 9.04471ZM15.6757 2.75648C14.8244 4.15769 14.7877 4.48354 15.4629 4.48354C15.7484 4.48354 16.2101 4.5935 16.5271 4.69875C16.9888 4.87753 17.0982 4.62521 17.0982 3.26043C17.0929 1.32355 16.6312 1.17649 15.6757 2.75648Z" fill="url(#paint1_linear)"/>
<defs>
<linearGradient id="paint0_linear" x1="6.35547" y1="32.8867" x2="22.9351" y2="5.66008" gradientUnits="userSpaceOnUse">
<stop stop-color="#FF4E16"/>
<stop offset="0.458333" stop-color="#FF5A13"/>
<stop offset="1" stop-color="#FFB90F"/>
</linearGradient>
<linearGradient id="paint1_linear" x1="0.419922" y1="29.0537" x2="29.2037" y2="2.95205" gradientUnits="userSpaceOnUse">
<stop stop-color="#FF4E16"/>
<stop offset="0.458333" stop-color="#FF5A13"/>
<stop offset="1" stop-color="#FFB90F"/>
</linearGradient>
</defs>
</svg>
