<svg width="24" height="24" viewBox="0 0 24 24" fill="none" xmlns="http://www.w3.org/2000/svg">
<mask id="path-1-inside-1" fill="white">
<path fill-rule="evenodd" clip-rule="evenodd" d="M14 3.75C13.769 4.30379 13.3148 4.7412 12.7498 4.94983L12.7498 21H18.4997V22.5H5.49968V21H11.2498L11.2498 4.95019C10.6844 4.74171 10.2298 4.30411 9.99874 3.75H5.24984V2.25H9.93719C10.2184 1.37958 11.0353 0.75 11.9994 0.75C12.9634 0.75 13.7803 1.37958 14.0615 2.25L18.7498 2.25V3.75L14 3.75ZM2.10328 15.7346L5.50001 8.65118L8.90326 15.7482C7.73402 16.6469 6.57727 17.0211 5.46919 16.999C4.35843 16.977 3.22257 16.555 2.10328 15.7346ZM6.62712 7.53251C6.17347 6.58649 4.82654 6.58649 4.3729 7.53251L0.658667 15.278C0.413956 15.7884 0.537737 16.4248 1.01242 16.7909C2.37889 17.8449 3.8776 18.4677 5.43937 18.4987C7.00856 18.5299 8.55958 17.9619 10.0163 16.7804C10.4735 16.4096 10.5851 15.7863 10.3459 15.2875L6.62712 7.53251ZM18.4998 8.65118L15.1031 15.7346C16.2224 16.555 17.3583 16.977 18.469 16.999C19.5771 17.0211 20.7339 16.6469 21.9031 15.7482L18.4998 8.65118ZM17.3727 7.53251C17.8264 6.58649 19.1733 6.58649 19.627 7.53251L23.3457 15.2875C23.5849 15.7863 23.4734 16.4096 23.0162 16.7804C21.5594 17.9619 20.0084 18.5299 18.4392 18.4987C16.8774 18.4677 15.3787 17.8449 14.0123 16.7909C13.5376 16.4248 13.4138 15.7884 13.6585 15.278L17.3727 7.53251Z"/>
</mask>
<path d="M14 3.75V2.25L13.0003 2.25L12.6155 3.17266L14 3.75ZM12.7498 4.94983L12.2303 3.5427L11.2498 3.90472V4.94983H12.7498ZM12.7498 21H11.2498V22.5H12.7498V21ZM18.4997 21H19.9997V19.5H18.4997V21ZM18.4997 22.5V24H19.9997V22.5H18.4997ZM5.49968 22.5H3.99968V24H5.49968V22.5ZM5.49968 21V19.5H3.99968V21H5.49968ZM11.2498 21V22.5H12.7498V21H11.2498ZM11.2498 4.95019H12.7498V3.90454L11.7687 3.54281L11.2498 4.95019ZM9.99874 3.75L11.3832 3.17266L10.9984 2.25H9.99874V3.75ZM5.24984 3.75H3.74984V5.25H5.24984V3.75ZM5.24984 2.25V0.75H3.74984V2.25H5.24984ZM9.93719 2.25V3.75H11.0289L11.3646 2.71111L9.93719 2.25ZM14.0615 2.25L12.6342 2.71111L12.9698 3.75H14.0615V2.25ZM18.7498 2.25H20.2498V0.750001L18.7498 0.750001V2.25ZM18.7498 3.75V5.25L20.2498 5.25V3.75H18.7498ZM5.50001 8.65118L6.85254 8.0026L5.50001 5.18207L4.14747 8.0026L5.50001 8.65118ZM2.10328 15.7346L0.750744 15.086L0.212486 16.2085L1.21651 16.9444L2.10328 15.7346ZM8.90326 15.7482L9.81736 16.9375L10.7817 16.1963L10.2558 15.0996L8.90326 15.7482ZM5.46919 16.999L5.49901 15.4993H5.49901L5.46919 16.999ZM4.3729 7.53251L5.72543 8.18109L4.3729 7.53251ZM6.62712 7.53251L7.97965 6.88393L6.62712 7.53251ZM0.658667 15.278L-0.693864 14.6295L-0.693865 14.6295L0.658667 15.278ZM1.01242 16.7909L0.0962897 17.9787L0.0962909 17.9787L1.01242 16.7909ZM5.43937 18.4987L5.40955 19.9984H5.40955L5.43937 18.4987ZM10.0163 16.7804L9.07145 15.6154L9.07145 15.6154L10.0163 16.7804ZM10.3459 15.2875L11.6984 14.6389L11.6984 14.6389L10.3459 15.2875ZM15.1031 15.7346L13.7506 15.086L13.2123 16.2085L14.2163 16.9444L15.1031 15.7346ZM18.4998 8.65118L19.8524 8.0026L18.4998 5.18207L17.1473 8.0026L18.4998 8.65118ZM18.469 16.999L18.4988 15.4993H18.4988L18.469 16.999ZM21.9031 15.7482L22.8172 16.9375L23.7815 16.1963L23.2556 15.0996L21.9031 15.7482ZM19.627 7.53251L20.9795 6.88393L19.627 7.53251ZM17.3727 7.53251L18.7253 8.18109L17.3727 7.53251ZM23.3457 15.2875L24.6982 14.6389V14.6389L23.3457 15.2875ZM23.0162 16.7804L22.0713 15.6154V15.6154L23.0162 16.7804ZM18.4392 18.4987L18.4094 19.9984L18.4392 18.4987ZM14.0123 16.7909L13.0961 17.9787H13.0961L14.0123 16.7909ZM13.6585 15.278L12.306 14.6295L13.6585 15.278ZM12.6155 3.17266C12.5445 3.34294 12.4029 3.47894 12.2303 3.5427L13.2694 6.35697C14.2268 6.00347 14.9935 5.26464 15.3844 4.32734L12.6155 3.17266ZM14.2498 21L14.2498 4.94983H11.2498L11.2498 21H14.2498ZM18.4997 19.5H12.7498V22.5H18.4997V19.5ZM19.9997 22.5V21H16.9997V22.5H19.9997ZM5.49968 24H18.4997V21H5.49968V24ZM3.99968 21V22.5H6.99968V21H3.99968ZM11.2498 19.5H5.49968V22.5H11.2498V19.5ZM9.74984 4.95019L9.74984 21H12.7498L12.7498 4.95019L9.74984 4.95019ZM11.7687 3.54281C11.596 3.4791 11.4542 3.34304 11.3832 3.17266L8.6143 4.32734C9.0054 5.26517 9.77282 6.00432 10.7309 6.35758L11.7687 3.54281ZM9.99874 2.25H5.24984V5.25H9.99874V2.25ZM6.74984 3.75V2.25H3.74984V3.75H6.74984ZM5.24984 3.75H9.93719V0.75H5.24984V3.75ZM11.3646 2.71111C11.4516 2.44177 11.705 2.25 11.9994 2.25V-0.75C10.3657 -0.75 8.98518 0.31739 8.50982 1.78889L11.3646 2.71111ZM11.9994 2.25C12.2937 2.25 12.5471 2.44177 12.6342 2.71111L15.4889 1.78889C15.0135 0.317389 13.6331 -0.75 11.9994 -0.75V2.25ZM18.7498 0.750001L14.0615 0.75V3.75L18.7498 3.75V0.750001ZM20.2498 3.75V2.25H17.2498V3.75H20.2498ZM14 5.25L18.7498 5.25V2.25L14 2.25V5.25ZM4.14747 8.0026L0.750744 15.086L3.45581 16.3832L6.85254 9.29976L4.14747 8.0026ZM10.2558 15.0996L6.85254 8.0026L4.14747 9.29976L7.55073 16.3968L10.2558 15.0996ZM5.43937 18.4987C6.93435 18.5285 8.41688 18.0139 9.81736 16.9375L7.98916 14.5589C7.05115 15.2799 6.2202 15.5137 5.49901 15.4993L5.43937 18.4987ZM1.21651 16.9444C2.52754 17.9054 3.95582 18.4692 5.43937 18.4987L5.49901 15.4993C4.76104 15.4847 3.9176 15.2047 2.99004 14.5248L1.21651 16.9444ZM5.72543 8.18109C5.70993 8.2134 5.67528 8.25612 5.62425 8.28673C5.57883 8.31397 5.53543 8.323 5.50001 8.323C5.46459 8.323 5.42118 8.31398 5.37576 8.28673C5.32473 8.25612 5.29008 8.2134 5.27458 8.18109L7.97965 6.88393C6.98162 4.80267 4.01838 4.8027 3.02036 6.88393L5.72543 8.18109ZM2.0112 15.9266L5.72543 8.18109L3.02036 6.88393L-0.693864 14.6295L2.0112 15.9266ZM1.92855 15.6032C2.04414 15.6924 2.05612 15.833 2.0112 15.9266L-0.693865 14.6295C-1.22821 15.7438 -0.968665 17.1572 0.0962897 17.9787L1.92855 15.6032ZM5.46919 16.999C4.3008 16.9758 3.10442 16.5102 1.92855 15.6032L0.0962909 17.9787C1.65336 19.1797 3.4544 19.9596 5.40955 19.9984L5.46919 16.999ZM9.07145 15.6154C7.84478 16.6103 6.63013 17.0221 5.46919 16.999L5.40955 19.9984C7.38699 20.0378 9.27439 19.3135 10.9612 17.9453L9.07145 15.6154ZM8.99333 15.9361C8.94971 15.8451 8.95885 15.7067 9.07145 15.6154L10.9612 17.9453C11.9882 17.1124 12.2204 15.7275 11.6984 14.6389L8.99333 15.9361ZM5.27458 8.18109L8.99333 15.9361L11.6984 14.6389L7.97965 6.88393L5.27458 8.18109ZM16.4556 16.3832L19.8524 9.29976L17.1473 8.0026L13.7506 15.086L16.4556 16.3832ZM18.4988 15.4993C17.7609 15.4847 16.9174 15.2047 15.9899 14.5248L14.2163 16.9444C15.5274 17.9054 16.9557 18.4692 18.4392 18.4987L18.4988 15.4993ZM20.989 14.5589C20.051 15.2799 19.22 15.5137 18.4988 15.4993L18.4392 18.4987C19.9342 18.5285 21.4167 18.0139 22.8172 16.9375L20.989 14.5589ZM17.1473 9.29976L20.5506 16.3968L23.2556 15.0996L19.8524 8.0026L17.1473 9.29976ZM20.9795 6.88393C19.9815 4.80268 17.0182 4.80269 16.0202 6.88393L18.7253 8.18109C18.7098 8.2134 18.6751 8.25612 18.6241 8.28673C18.5787 8.31397 18.5353 8.323 18.4998 8.323C18.4644 8.323 18.421 8.31397 18.3756 8.28673C18.3246 8.25612 18.2899 8.2134 18.2744 8.18109L20.9795 6.88393ZM24.6982 14.6389L20.9795 6.88393L18.2744 8.18109L21.9932 15.9361L24.6982 14.6389ZM23.9611 17.9453C24.988 17.1124 25.2203 15.7275 24.6982 14.6389L21.9932 15.9361C21.9496 15.8451 21.9587 15.7067 22.0713 15.6154L23.9611 17.9453ZM18.4094 19.9984C20.3868 20.0378 22.2742 19.3135 23.9611 17.9453L22.0713 15.6154C20.8446 16.6103 19.63 17.0221 18.469 16.999L18.4094 19.9984ZM13.0961 17.9787C14.6532 19.1797 16.4542 19.9596 18.4094 19.9984L18.469 16.999C17.3006 16.9758 16.1043 16.5102 14.9284 15.6032L13.0961 17.9787ZM12.306 14.6295C11.7716 15.7438 12.0312 17.1572 13.0961 17.9787L14.9284 15.6032C15.044 15.6924 15.056 15.833 15.011 15.9266L12.306 14.6295ZM16.0202 6.88393L12.306 14.6295L15.011 15.9266L18.7253 8.18109L16.0202 6.88393Z" fill="url(#paint0_linear)" mask="url(#path-1-inside-1)"/>
<defs>
<linearGradient id="paint0_linear" x1="0.536133" y1="0.75" x2="22.2557" y2="23.65" gradientUnits="userSpaceOnUse">
<stop stop-color="#FF4E16"/>
<stop offset="0.458333" stop-color="#FF5A13"/>
<stop offset="1" stop-color="#FFB90F"/>
</linearGradient>
</defs>
</svg>
