<svg width="16" height="16" viewBox="0 0 16 16" fill="none" xmlns="http://www.w3.org/2000/svg">
<path d="M11.5997 14.6667C8.87787 14.6631 6.26855 13.5803 4.34394 11.6557C2.41933 9.73112 1.33654 7.1218 1.33301 4.39999C1.33301 3.58666 1.6561 2.80665 2.23121 2.23153C2.80633 1.65642 3.58634 1.33333 4.39967 1.33333C4.5719 1.33202 4.74384 1.34765 4.91301 1.37999C5.07655 1.4042 5.23732 1.44439 5.39301 1.49999C5.50251 1.53841 5.60008 1.60475 5.67608 1.69244C5.75208 1.78014 5.80387 1.88615 5.82634 1.99999L6.73967 5.99999C6.76429 6.10857 6.76133 6.22158 6.73105 6.32872C6.70077 6.43585 6.64415 6.5337 6.56634 6.61333C6.47967 6.70666 6.47301 6.71333 5.65301 7.13999C6.30967 8.58057 7.46181 9.73743 8.89967 10.4C9.33301 9.57333 9.33967 9.56666 9.43301 9.47999C9.51264 9.40219 9.61048 9.34556 9.71762 9.31528C9.82475 9.28501 9.93777 9.28204 10.0463 9.30666L14.0463 10.22C14.1565 10.2456 14.2584 10.2988 14.3424 10.3746C14.4264 10.4504 14.4897 10.5463 14.5263 10.6533C14.5826 10.8116 14.625 10.9744 14.653 11.14C14.6798 11.3075 14.6932 11.477 14.693 11.6467C14.6807 12.4565 14.3485 13.2286 13.769 13.7944C13.1894 14.3602 12.4096 14.6738 11.5997 14.6667Z" fill="url(#paint0_linear)"/>
<defs>
<linearGradient id="paint0_linear" x1="1.33301" y1="1.33325" x2="14.6665" y2="14.6932" gradientUnits="userSpaceOnUse">
<stop stop-color="#FF4E16"/>
<stop offset="0.458333" stop-color="#FF5A13"/>
<stop offset="1" stop-color="#FFB90F"/>
</linearGradient>
</defs>
</svg>
