<svg width="16" height="16" viewBox="0 0 16 16" fill="none" xmlns="http://www.w3.org/2000/svg">
<path fill-rule="evenodd" clip-rule="evenodd" d="M2.66634 1.33325H13.333C13.6858 1.3329 14.0244 1.47253 14.2743 1.7215C14.5243 1.97047 14.6653 2.30845 14.6663 2.66125V10.6719C14.6663 11.4039 14.0683 11.9999 13.333 11.9999H8.90034L4.66634 14.6666V11.9999H2.66634C1.93101 11.9999 1.33301 11.4039 1.33301 10.6719V2.66125C1.33301 1.92925 1.93101 1.33325 2.66634 1.33325ZM4 4.5H12V3.5H4V4.5ZM12 7H4V6H12V7ZM4 9.5H8V8.5H4V9.5Z" fill="url(#paint0_linear)"/>
<defs>
<linearGradient id="paint0_linear" x1="1.33301" y1="1.33325" x2="14.6663" y2="14.6666" gradientUnits="userSpaceOnUse">
<stop stop-color="#FF4E16"/>
<stop offset="0.458333" stop-color="#FF5A13"/>
<stop offset="1" stop-color="#FFB90F"/>
</linearGradient>
</defs>
</svg>
