<svg width="12" height="16" viewBox="0 0 12 16" fill="none" xmlns="http://www.w3.org/2000/svg">
<path d="M6.0002 0.888672C4.61585 0.889828 3.2882 1.43875 2.30723 2.41556C1.32626 3.39236 0.771693 4.71767 0.764648 6.10201C0.764648 8.17756 1.92909 9.91534 2.78243 11.182L2.93798 11.4131C3.78699 12.6436 4.69779 13.8303 5.66687 14.9687L6.00465 15.3642L6.34243 14.9687C7.31138 13.8302 8.22217 12.6435 9.07131 11.4131L9.22687 11.1776C10.0758 9.91089 11.2402 8.17756 11.2402 6.10201C11.2332 4.7169 10.678 3.39092 9.69605 2.41399C8.71412 1.43706 7.38533 0.888654 6.0002 0.888672ZM6.0002 8.44423C5.42356 8.44423 4.85987 8.27323 4.38041 7.95287C3.90095 7.6325 3.52725 7.17716 3.30658 6.64441C3.08591 6.11166 3.02817 5.52544 3.14067 4.95988C3.25317 4.39431 3.53085 3.87481 3.93859 3.46706C4.34634 3.05932 4.86584 2.78164 5.43141 2.66914C5.99697 2.55664 6.58319 2.61438 7.11594 2.83505C7.64869 3.05572 8.10403 3.42942 8.4244 3.90888C8.74477 4.38834 8.91576 4.95203 8.91576 5.52867C8.91576 6.30193 8.60859 7.04351 8.06181 7.59028C7.51504 8.13705 6.77346 8.44423 6.0002 8.44423Z" fill="url(#paint0_linear)"/>
<defs>
<linearGradient id="paint0_linear" x1="0.764648" y1="0.888672" x2="14.5148" y2="10.8393" gradientUnits="userSpaceOnUse">
<stop stop-color="#FF4E16"/>
<stop offset="0.458333" stop-color="#FF5A13"/>
<stop offset="1" stop-color="#FFB90F"/>
</linearGradient>
</defs>
</svg>
