<svg width="16" height="16" viewBox="0 0 16 16" fill="none" xmlns="http://www.w3.org/2000/svg">
<path d="M11.5997 14.6664C8.87787 14.6629 6.26855 13.5801 4.34394 11.6555C2.41933 9.73087 1.33654 7.12156 1.33301 4.39975C1.33301 3.58642 1.6561 2.8064 2.23121 2.23129C2.80633 1.65618 3.58634 1.33308 4.39967 1.33308C4.5719 1.33177 4.74384 1.3474 4.91301 1.37975C5.07655 1.40395 5.23732 1.44414 5.39301 1.49975C5.50251 1.53817 5.60008 1.60451 5.67608 1.6922C5.75208 1.77989 5.80387 1.8859 5.82634 1.99975L6.73967 5.99975C6.76429 6.10833 6.76133 6.22134 6.73105 6.32847C6.70077 6.43561 6.64415 6.53345 6.56634 6.61308C6.47967 6.70642 6.47301 6.71308 5.65301 7.13975C6.30967 8.58032 7.46181 9.73719 8.89967 10.3998C9.33301 9.57308 9.33967 9.56642 9.43301 9.47975C9.51264 9.40194 9.61048 9.34532 9.71762 9.31504C9.82475 9.28476 9.93777 9.2818 10.0463 9.30642L14.0463 10.2198C14.1565 10.2453 14.2584 10.2985 14.3424 10.3743C14.4264 10.4501 14.4897 10.5461 14.5263 10.6531C14.5826 10.8113 14.625 10.9742 14.653 11.1397C14.6798 11.3073 14.6932 11.4767 14.693 11.6464C14.6807 12.4563 14.3485 13.2284 13.769 13.7942C13.1894 14.36 12.4096 14.6736 11.5997 14.6664Z" fill="url(#paint0_linear)"/>
<defs>
<linearGradient id="paint0_linear" x1="1.33301" y1="1.33301" x2="14.6665" y2="14.693" gradientUnits="userSpaceOnUse">
<stop stop-color="#FF4E16"/>
<stop offset="0.458333" stop-color="#FF5A13"/>
<stop offset="1" stop-color="#FFB90F"/>
</linearGradient>
</defs>
</svg>
