<svg width="48" height="48" viewBox="0 0 48 48" fill="none" xmlns="http://www.w3.org/2000/svg">
<path d="M41.5 21.9503V22.4063L41.9541 22.4481C42.4683 22.4955 43.0956 22.6853 43.3937 23.4048C43.4819 23.6208 43.5188 23.8543 43.5014 24.087L43.5 24.1056V24.1243V28.0002C43.5 28.3981 43.342 28.7796 43.0607 29.0609C42.7794 29.3422 42.3978 29.5002 42 29.5002H41.5V30.0002V40.0003C41.5 40.9285 41.1313 41.8187 40.4749 42.4751C39.8185 43.1315 38.9283 43.5003 38 43.5003H10C9.07174 43.5003 8.1815 43.1315 7.52513 42.4751C6.86875 41.8187 6.5 40.9285 6.5 40.0003V30.0002V29.5002H6C5.60218 29.5002 5.22064 29.3422 4.93934 29.0609C4.65804 28.7796 4.5 28.3981 4.5 28.0002L4.5 24.0002L4.5 24C4.4998 23.621 4.64327 23.256 4.90149 22.9786C5.15971 22.7012 5.51349 22.5319 5.89154 22.505L6.03464 22.495L6.5 22.4627V21.9963V16.0002C6.5 15.072 6.86875 14.1818 7.52513 13.5254C8.1815 12.869 9.07174 12.5002 10 12.5002H22H22.5V12.0002V9.37625V9.1533L22.3341 9.0043C21.8223 8.54448 21.5 7.8887 21.5 7.15625C21.5 6.49321 21.7634 5.85732 22.2322 5.38848C22.7011 4.91964 23.337 4.65625 24 4.65625C24.663 4.65625 25.2989 4.91964 25.7678 5.38848C26.2366 5.85732 26.5 6.49321 26.5 7.15625C26.5 7.8887 26.1777 8.54448 25.6659 9.0043L25.5 9.1533V9.37625V12.0002V12.5002H26H38C38.9283 12.5002 39.8185 12.869 40.4749 13.5254C41.1312 14.1818 41.5 15.072 41.5 16.0002V21.9503ZM31.9945 36.5002L32.495 36.5017L32.496 36.0012L32.504 32.0012L32.505 31.5012L32.005 31.5003C31.0033 31.4982 27.0015 31.4983 23.2512 31.4988L18.219 31.4997L16.6054 31.5001L16.1576 31.5002L16.0401 31.5002L16.01 31.5002L16.0024 31.5002H16.0005H16C15.9999 31.5002 15.9999 31.5002 16 32.0002L15.9999 31.5002L15.5 31.5004V32.0002V36.0002V36.5003H16L16.0083 36.5002C16.393 36.5001 30.0215 36.4943 31.9945 36.5002ZM17 19.5002C15.9792 19.5002 15.0929 20.0537 14.479 20.8722C13.8651 21.6907 13.5 22.7984 13.5 24.0002C13.5 25.2021 13.8651 26.3098 14.479 27.1283C15.0929 27.9468 15.9792 28.5002 17 28.5002C18.0208 28.5002 18.9071 27.9468 19.521 27.1283C20.1349 26.3098 20.5 25.2021 20.5 24.0002C20.5 22.7984 20.1349 21.6907 19.521 20.8722C18.9071 20.0537 18.0208 19.5002 17 19.5002ZM27.5 24.0002C27.5 25.2021 27.8651 26.3098 28.479 27.1283C29.0929 27.9468 29.9792 28.5002 31 28.5002C32.0208 28.5002 32.9071 27.9468 33.521 27.1283C34.1349 26.3098 34.5 25.2021 34.5 24.0002C34.5 22.7984 34.1349 21.6907 33.521 20.8722C32.9071 20.0537 32.0208 19.5002 31 19.5002C29.9792 19.5002 29.0929 20.0537 28.479 20.8722C27.8651 21.6907 27.5 22.7984 27.5 24.0002Z" stroke="url(#paint0_linear)"/>
<defs>
<linearGradient id="paint0_linear" x1="4" y1="4.15625" x2="43.8437" y2="44.1615" gradientUnits="userSpaceOnUse">
<stop stop-color="#FF4E16"/>
<stop offset="0.458333" stop-color="#FF5A13"/>
<stop offset="1" stop-color="#FFB90F"/>
</linearGradient>
</defs>
</svg>
