<svg width="32" height="32" viewBox="0 0 32 32" fill="none" xmlns="http://www.w3.org/2000/svg">
<path d="M16.0003 2.66699C8.64833 2.66699 2.66699 8.64833 2.66699 16.0003V21.5243C2.66699 22.8897 3.86299 24.0003 5.33366 24.0003H6.66699C7.02061 24.0003 7.35975 23.8599 7.6098 23.6098C7.85985 23.3598 8.00033 23.0206 8.00033 22.667V15.8097C8.00033 15.456 7.85985 15.1169 7.6098 14.8668C7.35975 14.6168 7.02061 14.4763 6.66699 14.4763H5.45633C6.19766 9.31633 10.6377 5.33366 16.0003 5.33366C21.363 5.33366 25.803 9.31633 26.5443 14.4763H25.3337C24.98 14.4763 24.6409 14.6168 24.3908 14.8668C24.1408 15.1169 24.0003 15.456 24.0003 15.8097V24.0003C24.0003 25.471 22.8043 26.667 21.3337 26.667H18.667V25.3337H13.3337V29.3337H21.3337C24.275 29.3337 26.667 26.9417 26.667 24.0003C28.1377 24.0003 29.3337 22.8897 29.3337 21.5243V16.0003C29.3337 8.64833 23.3523 2.66699 16.0003 2.66699Z" stroke="url(#paint0_linear)"/>
<defs>
<linearGradient id="paint0_linear" x1="2.66699" y1="2.66699" x2="29.3337" y2="29.3337" gradientUnits="userSpaceOnUse">
<stop stop-color="#FF4E16"/>
<stop offset="0.458333" stop-color="#FF5A13"/>
<stop offset="1" stop-color="#FFB90F"/>
</linearGradient>
</defs>
</svg>
