<svg width="32" height="32" viewBox="0 0 32 32" fill="none" xmlns="http://www.w3.org/2000/svg">
<path d="M4.68455 18.9139L5.05767 18.581C5.01682 18.5352 3.91474 17.2979 2.79947 15.6632C1.229 13.3613 0.5 11.5436 0.5 10.2287C0.5 7.53349 2.69363 5.33984 5.38893 5.33984C8.08422 5.33984 10.2779 7.53349 10.2779 10.2287C10.2779 11.5436 9.54891 13.3613 7.9784 15.6632L7.97839 15.6632C6.86306 17.2981 5.76101 18.5354 5.7206 18.5806L5.72055 18.5806C5.63614 18.6751 5.51552 18.729 5.38893 18.729C5.26234 18.729 5.14172 18.6751 5.05731 18.5806L4.68455 18.9139ZM4.68455 18.9139C4.63755 18.8612 3.51931 17.6055 2.38643 15.945L4.68455 18.9139ZM5.38893 13.2333C3.73179 13.2333 2.38437 11.8859 2.38437 10.2288C2.38437 8.57156 3.7318 7.22421 5.38893 7.22421C7.04613 7.22421 8.39347 8.57163 8.39349 10.2287L5.38893 13.2333ZM5.38893 13.2333C7.04604 13.2333 8.39355 11.8859 8.39349 10.2288L5.38893 13.2333Z" stroke="url(#paint0_linear)"/>
<path d="M8.29688 19.2295H11.9949C13.6605 19.2295 15.0155 20.5846 15.0155 22.2501C15.0155 24.9574 17.2181 27.16 19.9254 27.16H23.7033" stroke="url(#paint1_linear)"/>
<path d="M26.6105 13.2705C23.9153 13.2705 21.7217 15.4641 21.7217 18.1594C21.7217 19.4744 22.4507 21.292 24.0211 23.594C25.1345 25.2258 26.2346 26.4617 26.2789 26.5112C26.3634 26.6057 26.484 26.6597 26.6106 26.6597L26.6105 13.2705ZM26.6105 13.2705C29.3058 13.2705 31.4995 15.4641 31.4995 18.1594C31.4995 19.4744 30.7706 21.2921 29.2001 23.5939L29.2001 23.594C28.0848 25.2287 26.9828 26.466 26.9423 26.5112L26.6105 13.2705ZM23.606 18.1594C23.606 19.8166 24.9533 21.164 26.6105 21.164C28.2678 21.164 29.6151 19.8166 29.6151 18.1594C29.6151 16.5023 28.2677 15.1549 26.6105 15.1549C24.9534 15.1549 23.606 16.5022 23.606 18.1594Z" stroke="url(#paint2_linear)"/>
<defs>
<linearGradient id="paint0_linear" x1="0" y1="4.83984" x2="13.8086" y2="15.1828" gradientUnits="userSpaceOnUse">
<stop stop-color="#FF4E16"/>
<stop offset="0.458333" stop-color="#FF5A13"/>
<stop offset="1" stop-color="#FFB90F"/>
</linearGradient>
<linearGradient id="paint1_linear" x1="8.29688" y1="19.2295" x2="14.7512" y2="31.7682" gradientUnits="userSpaceOnUse">
<stop stop-color="#FF4E16"/>
<stop offset="0.458333" stop-color="#FF5A13"/>
<stop offset="1" stop-color="#FFB90F"/>
</linearGradient>
<linearGradient id="paint2_linear" x1="21.2217" y1="12.7705" x2="35.0302" y2="23.1135" gradientUnits="userSpaceOnUse">
<stop stop-color="#FF4E16"/>
<stop offset="0.458333" stop-color="#FF5A13"/>
<stop offset="1" stop-color="#FFB90F"/>
</linearGradient>
</defs>
</svg>
