<svg width="24" height="24" viewBox="0 0 24 24" fill="none" xmlns="http://www.w3.org/2000/svg">
<g clip-path="url(#clip0)">
<path d="M17.0323 18.2001H22.2774C20.1774 21.6827 16.3597 24.0126 12 24.0126C7.64032 24.0126 3.82258 21.6827 1.72258 18.2001H6.96774V12.0097L12 17.086L17.0323 12V18.2001ZM4.25806 15.875V5.80005L11.971 13.521L19.7419 5.80005V15.875H23.3613C23.7726 14.6593 24 13.3563 24 12C24 5.36411 18.629 -0.0124512 12 -0.0124512C5.37097 -0.0124512 0 5.36411 0 12C0 13.3563 0.222581 14.6593 0.63871 15.875H4.25806Z" fill="white"/>
</g>
<defs>
<clipPath id="clip0">
<rect width="24" height="24" fill="white"/>
</clipPath>
</defs>
</svg>
