<svg width="32" height="33" viewBox="0 0 32 33" fill="none" xmlns="http://www.w3.org/2000/svg">
<path d="M27.9996 5.28809H3.99963C2.67595 5.28809 1.59961 6.36443 1.59961 7.6881V24.4881C1.59961 25.8117 2.67595 26.8881 3.99963 26.8881H27.9996C29.3233 26.8881 30.3996 25.8117 30.3996 24.4881V7.6881C30.3996 6.36443 29.3233 5.28809 27.9996 5.28809ZM3.99963 6.48807H27.9996C28.0881 6.48807 28.166 6.5203 28.2489 6.53852C26.1711 8.44017 19.2814 14.7431 16.8704 16.9154C16.6817 17.0853 16.3776 17.2881 15.9997 17.2881C15.6217 17.2881 15.3176 17.0853 15.1284 16.9148C12.7175 14.7429 5.82742 8.4396 3.74993 6.53864C3.83307 6.52041 3.91115 6.48807 3.99963 6.48807ZM2.79959 24.4881V7.6881C2.79959 7.57054 2.83503 7.46389 2.86675 7.35646C4.45705 8.81198 9.2644 13.2098 12.3816 16.0444C9.27453 18.7133 4.46594 23.2723 2.86298 24.8008C2.83469 24.6988 2.79959 24.599 2.79959 24.4881ZM27.9996 25.6881H3.99963C3.90378 25.6881 3.81856 25.6547 3.72907 25.6333C5.38546 24.0543 10.2246 19.4691 13.2771 16.8578C13.675 17.2188 14.0385 17.5479 14.325 17.8061C14.8195 18.2526 15.3984 18.4881 15.9996 18.4881C16.6008 18.4881 17.1797 18.2525 17.6736 17.8066C17.9603 17.5483 18.324 17.2189 18.7222 16.8578C21.7747 19.4688 26.6133 24.0536 28.2702 25.6333C28.1807 25.6547 28.0956 25.6881 27.9996 25.6881ZM29.1996 24.4881C29.1996 24.5989 29.1645 24.6988 29.1363 24.8008C27.5327 23.2715 22.7247 18.713 19.6177 16.0445C22.735 13.2099 27.5416 8.81243 29.1325 7.35634C29.1642 7.46378 29.1996 7.57049 29.1996 7.68805V24.4881Z" fill="url(#paint0_linear)"/>
<defs>
<linearGradient id="paint0_linear" x1="1.59961" y1="5.28809" x2="22.3356" y2="32.9361" gradientUnits="userSpaceOnUse">
<stop stop-color="#FF4E16"/>
<stop offset="0.458333" stop-color="#FF5A13"/>
<stop offset="1" stop-color="#FFB90F"/>
</linearGradient>
</defs>
</svg>
