<svg width="48" height="48" viewBox="0 0 48 48" fill="none" xmlns="http://www.w3.org/2000/svg">
<path d="M41.5 21.9498V22.4058L41.9541 22.4477C42.4683 22.495 43.0956 22.6848 43.3937 23.4043C43.4819 23.6203 43.5188 23.8539 43.5014 24.0865L43.5 24.1051V24.1238V27.9998C43.5 28.3976 43.342 28.7791 43.0607 29.0604C42.7794 29.3417 42.3978 29.4998 42 29.4998H41.5V29.9998V39.9998C41.5 40.928 41.1313 41.8183 40.4749 42.4746C39.8185 43.131 38.9283 43.4998 38 43.4998H10C9.07174 43.4998 8.1815 43.131 7.52513 42.4746C6.86875 41.8183 6.5 40.928 6.5 39.9998V29.9998V29.4998H6C5.60218 29.4998 5.22064 29.3417 4.93934 29.0604C4.65804 28.7791 4.5 28.3976 4.5 27.9998L4.5 23.9998L4.5 23.9995C4.4998 23.6205 4.64327 23.2555 4.90149 22.9781C5.15971 22.7007 5.51349 22.5314 5.89154 22.5045L6.03464 22.4946L6.5 22.4622V21.9958V15.9998C6.5 15.0715 6.86875 14.1813 7.52513 13.5249C8.1815 12.8685 9.07174 12.4998 10 12.4998H22H22.5V11.9998V9.37576V9.15281L22.3341 9.00381C21.8223 8.54399 21.5 7.88821 21.5 7.15576C21.5 6.49272 21.7634 5.85684 22.2322 5.38799C22.7011 4.91915 23.337 4.65576 24 4.65576C24.663 4.65576 25.2989 4.91915 25.7678 5.38799C26.2366 5.85684 26.5 6.49272 26.5 7.15576C26.5 7.88821 26.1777 8.54399 25.6659 9.00381L25.5 9.15281V9.37576V11.9998V12.4998H26H38C38.9283 12.4998 39.8185 12.8685 40.4749 13.5249C41.1312 14.1813 41.5 15.0715 41.5 15.9998V21.9498ZM31.9945 36.4998L32.495 36.5013L32.496 36.0008L32.504 32.0008L32.505 31.5008L32.005 31.4998C31.0033 31.4978 27.0015 31.4978 23.2512 31.4983L18.219 31.4992L16.6054 31.4996L16.1576 31.4997L16.0401 31.4998L16.01 31.4998L16.0024 31.4998H16.0005H16C15.9999 31.4998 15.9999 31.4998 16 31.9998L15.9999 31.4998L15.5 31.4999V31.9998V35.9998V36.4998H16L16.0083 36.4998C16.393 36.4996 30.0215 36.4938 31.9945 36.4998ZM17 19.4998C15.9792 19.4998 15.0929 20.0532 14.479 20.8718C13.8651 21.6902 13.5 22.7979 13.5 23.9998C13.5 25.2016 13.8651 26.3093 14.479 27.1278C15.0929 27.9463 15.9792 28.4998 17 28.4998C18.0208 28.4998 18.9071 27.9463 19.521 27.1278C20.1349 26.3093 20.5 25.2016 20.5 23.9998C20.5 22.7979 20.1349 21.6902 19.521 20.8718C18.9071 20.0532 18.0208 19.4998 17 19.4998ZM27.5 23.9998C27.5 25.2016 27.8651 26.3093 28.479 27.1278C29.0929 27.9463 29.9792 28.4998 31 28.4998C32.0208 28.4998 32.9071 27.9463 33.521 27.1278C34.1349 26.3093 34.5 25.2016 34.5 23.9998C34.5 22.7979 34.1349 21.6902 33.521 20.8718C32.9071 20.0532 32.0208 19.4998 31 19.4998C29.9792 19.4998 29.0929 20.0532 28.479 20.8718C27.8651 21.6902 27.5 22.7979 27.5 23.9998Z" stroke="url(#paint0_linear)"/>
<defs>
<linearGradient id="paint0_linear" x1="4" y1="4.15576" x2="43.8437" y2="44.161" gradientUnits="userSpaceOnUse">
<stop stop-color="#FF4E16"/>
<stop offset="0.458333" stop-color="#FF5A13"/>
<stop offset="1" stop-color="#FFB90F"/>
</linearGradient>
</defs>
</svg>
