<svg width="32" height="32" viewBox="0 0 32 32" fill="none" xmlns="http://www.w3.org/2000/svg">
<path d="M29.0527 5.20253C29.0527 5.19072 29.0542 5.17866 29.0532 5.16701C29.0507 5.13103 29.0408 5.09578 29.0304 5.06061C29.0279 5.05167 29.0279 5.04281 29.025 5.03396C29.0083 4.98803 28.9846 4.94427 28.9535 4.90373C28.9484 4.89671 28.9419 4.89042 28.9362 4.88349C28.9351 4.8827 28.9349 4.88126 28.9341 4.87991C28.9335 4.87903 28.932 4.8788 28.9313 4.87744C28.927 4.87274 28.9231 4.86748 28.919 4.86326C28.8817 4.82472 28.8396 4.79489 28.7939 4.77106C28.7836 4.76589 28.7724 4.76384 28.7617 4.75924C28.722 4.74177 28.6812 4.72894 28.6385 4.72281C28.6197 4.72006 28.6014 4.72018 28.5825 4.71991C28.5461 4.71863 28.5103 4.72119 28.4738 4.7283C28.4546 4.73201 28.4365 4.73604 28.4177 4.74215C28.4054 4.74617 28.3931 4.74628 28.381 4.75125L1.34934 15.1898C1.15706 15.2643 1.03156 15.4503 1.03667 15.6551C1.04178 15.86 1.1755 16.0393 1.37122 16.1034L10.0971 18.9568L12.8038 26.4687C12.8038 26.4746 12.8063 26.4806 12.8068 26.4864C12.8084 26.5255 12.8142 26.5629 12.8253 26.5999C12.831 26.6186 12.8364 26.6364 12.8444 26.6543C12.8631 26.6979 12.8881 26.7375 12.9189 26.7737C12.9251 26.7805 12.9266 26.7896 12.9332 26.7964C12.935 26.7985 12.9378 26.8 12.94 26.8016C12.9478 26.8097 12.9577 26.8154 12.9664 26.8233C12.9938 26.8472 13.0217 26.8686 13.0523 26.8856C13.0572 26.8883 13.061 26.893 13.0663 26.8956C13.0745 26.8996 13.0829 26.8997 13.0909 26.9033C13.1236 26.9175 13.1566 26.9282 13.191 26.9352C13.2048 26.9378 13.2179 26.9415 13.232 26.9431C13.2775 26.9483 13.3238 26.9493 13.3691 26.9417C13.3696 26.9417 13.3701 26.9416 13.3706 26.9415C13.3725 26.9412 13.3743 26.9399 13.3762 26.9396C13.3845 26.9387 13.3928 26.9378 13.401 26.9364C13.5346 26.914 13.6452 26.8344 13.7191 26.728L18.4692 22.2963L24.6693 24.9667C24.7569 25.0042 24.8529 25.0151 24.945 24.9997C24.9957 24.9912 25.0459 24.9744 25.0929 24.9498C25.224 24.8805 25.3171 24.7557 25.3448 24.6103L29.0444 5.29448C29.0479 5.27716 29.0504 5.25951 29.0518 5.24155C29.0526 5.23405 29.0518 5.22679 29.0522 5.21985C29.0527 5.21434 29.0527 5.20843 29.0527 5.20253ZM23.9794 9.19486L13.8245 19.58C13.808 19.5971 13.7959 19.6168 13.7823 19.6358C13.777 19.6426 13.7715 19.6484 13.7672 19.6556C13.7589 19.6683 13.7516 19.6808 13.7445 19.6943C13.7377 19.7073 13.733 19.7204 13.7273 19.7336C13.7142 19.7653 13.7043 19.7975 13.698 19.8311C13.6966 19.8377 13.6936 19.8431 13.6927 19.8497C13.6925 19.8517 13.6907 19.8529 13.6906 19.8549L13.0819 24.3551L11.0601 18.7441L23.9794 9.19486ZM13.984 25.1506L14.5757 20.6203L16.8441 21.5975L17.4929 21.8769L15.7247 23.5264L13.984 25.1506ZM25.3783 6.95184L10.3908 18.0296L2.97237 15.604L25.3783 6.95184ZM24.4991 23.8343L16.2655 20.2886L15.0185 19.7512L27.781 6.69884L24.4991 23.8343Z" fill="url(#paint0_linear)"/>
<defs>
<linearGradient id="paint0_linear" x1="0" y1="9.50513" x2="22.0781" y2="33.198" gradientUnits="userSpaceOnUse">
<stop stop-color="#FF4E16"/>
<stop offset="0.458333" stop-color="#FF5A13"/>
<stop offset="1" stop-color="#FFB90F"/>
</linearGradient>
</defs>
</svg>
