<svg width="32" height="32" viewBox="0 0 32 32" fill="none" xmlns="http://www.w3.org/2000/svg">
<path d="M27.3702 22.5164L22.5125 19.2769C21.8961 18.8691 21.0698 19.0033 20.614 19.5853L19.199 21.4045C19.0172 21.6443 18.6866 21.7139 18.4235 21.5677L18.1544 21.4194C17.2621 20.933 16.1519 20.3275 13.915 18.0899C11.6781 15.8523 11.0714 14.7413 10.5851 13.8507L10.4375 13.5815C10.2894 13.3185 10.3576 12.9865 10.5975 12.8032L12.4156 11.3887C12.9973 10.9329 13.1317 10.1068 12.7243 9.49021L9.48481 4.63264C9.06736 4.00471 8.22983 3.81621 7.58356 4.20469L5.55226 5.42488C4.91401 5.80009 4.44575 6.40777 4.24567 7.12057C3.5142 9.78571 4.06448 14.3853 10.8403 21.1618C16.2303 26.5512 20.2429 28.0006 23.0009 28.0006C23.6356 28.0033 24.2679 27.9207 24.8806 27.7551C25.5936 27.5552 26.2014 27.0869 26.5764 26.4485L27.7978 24.4185C28.1869 23.7721 27.9985 22.934 27.3702 22.5164ZM27.1087 24.0081L25.89 26.0394C25.6208 26.5002 25.1836 26.839 24.6702 26.9848C22.2098 27.6603 17.9112 27.1008 11.4062 20.5959C4.90112 14.091 4.34165 9.79292 5.01716 7.33217C5.1632 6.81814 5.50243 6.38045 5.9638 6.11077L7.99511 4.89219C8.27552 4.72347 8.63903 4.80525 8.82018 5.07773L10.5799 7.71967L12.0569 9.93488C12.2338 10.2024 12.1757 10.5608 11.9234 10.7588L10.1048 12.1733C9.55141 12.5965 9.39337 13.3621 9.73411 13.9698L9.87851 14.2322C10.3896 15.1696 11.0251 16.3358 13.3452 18.6554C15.6653 20.975 16.8311 21.6105 17.7681 22.1216L18.0309 22.2664C18.6385 22.6071 19.4043 22.4491 19.8274 21.8957L21.242 20.0772C21.44 19.825 21.7983 19.7669 22.0659 19.9436L26.9232 23.1831C27.1958 23.364 27.2776 23.7277 27.1087 24.0081Z" fill="url(#paint0_linear)"/>
<path d="M17.5991 8.00442C21.3524 8.00859 24.3939 11.0501 24.3982 14.8033C24.3982 15.0242 24.5772 15.2032 24.7981 15.2032C25.019 15.2032 25.198 15.0242 25.198 14.8033C25.1934 10.6085 21.794 7.20918 17.5991 7.20459C17.3783 7.20459 17.1992 7.38362 17.1992 7.60451C17.1992 7.82539 17.3783 8.00442 17.5991 8.00442Z" fill="url(#paint1_linear)"/>
<path d="M17.5991 10.4036C20.0277 10.4065 21.9957 12.3744 21.9985 14.8029C21.9985 15.0237 22.1776 15.2028 22.3984 15.2028C22.6193 15.2028 22.7984 15.0237 22.7984 14.8029C22.795 11.9328 20.4692 9.60704 17.5991 9.60376C17.3783 9.60376 17.1992 9.78279 17.1992 10.0037C17.1992 10.2246 17.3783 10.4036 17.5991 10.4036Z" fill="url(#paint2_linear)"/>
<path d="M17.5991 12.8035C18.703 12.8048 19.5975 13.6993 19.5989 14.8032C19.5989 15.024 19.7779 15.2031 19.9988 15.2031C20.2196 15.2031 20.3987 15.024 20.3987 14.8032C20.3969 13.2578 19.1446 12.0054 17.5991 12.0037C17.3783 12.0037 17.1992 12.1827 17.1992 12.4036C17.1992 12.6245 17.3783 12.8035 17.5991 12.8035Z" fill="url(#paint3_linear)"/>
<defs>
<linearGradient id="paint0_linear" x1="4" y1="4.00293" x2="27.9977" y2="28.0029" gradientUnits="userSpaceOnUse">
<stop stop-color="#FF4E16"/>
<stop offset="0.458333" stop-color="#FF5A13"/>
<stop offset="1" stop-color="#FFB90F"/>
</linearGradient>
<linearGradient id="paint1_linear" x1="17.1992" y1="7.20459" x2="25.1978" y2="15.2034" gradientUnits="userSpaceOnUse">
<stop stop-color="#FF4E16"/>
<stop offset="0.458333" stop-color="#FF5A13"/>
<stop offset="1" stop-color="#FFB90F"/>
</linearGradient>
<linearGradient id="paint2_linear" x1="17.1992" y1="9.60376" x2="22.7982" y2="15.2029" gradientUnits="userSpaceOnUse">
<stop stop-color="#FF4E16"/>
<stop offset="0.458333" stop-color="#FF5A13"/>
<stop offset="1" stop-color="#FFB90F"/>
</linearGradient>
<linearGradient id="paint3_linear" x1="17.1992" y1="12.0037" x2="20.3986" y2="15.2032" gradientUnits="userSpaceOnUse">
<stop stop-color="#FF4E16"/>
<stop offset="0.458333" stop-color="#FF5A13"/>
<stop offset="1" stop-color="#FFB90F"/>
</linearGradient>
</defs>
</svg>
