<svg width="48" height="48" viewBox="0 0 48 48" fill="none" xmlns="http://www.w3.org/2000/svg">
<path d="M24 43.5H23.9994C20.845 43.5042 17.7372 42.7399 14.9445 41.2733L14.7732 41.1834L14.586 41.2321L6.00603 43.4661L6.006 43.4661C5.80363 43.5188 5.591 43.5178 5.38919 43.463C5.18737 43.4082 5.00337 43.3016 4.85543 43.1538C4.70749 43.006 4.60074 42.8221 4.54576 42.6204C4.49079 42.4186 4.48949 42.206 4.54199 42.0036C4.54199 42.0036 4.54199 42.0036 4.542 42.0036L6.77391 33.4259L6.82265 33.2386L6.73253 33.0672C5.262 30.2716 4.49567 27.1595 4.50002 24.0007V24C4.50002 13.2301 13.2302 4.5 24 4.5C34.7699 4.5 43.5 13.2301 43.5 24C43.5 34.7699 34.7699 43.5 24 43.5ZM26.5386 25.5012L26.5213 25.5H26.504H17.5H17.4829L17.4658 25.5012L17.2618 25.5152L17.2448 25.5163L17.2279 25.5187C16.7492 25.5845 16.3105 25.8215 15.993 26.1857C15.6754 26.5499 15.5005 27.0168 15.5005 27.5C15.5005 27.9832 15.6754 28.4501 15.993 28.8143C16.3105 29.1785 16.7492 29.4155 17.2279 29.4813L17.2448 29.4837L17.2618 29.4848L17.4658 29.4988L17.4829 29.5H17.5H26.504H26.5213L26.5386 29.4988L26.7406 29.4848L26.7574 29.4836L26.7742 29.4813C27.2529 29.4155 27.6915 29.1785 28.0091 28.8143C28.3266 28.4501 28.5016 27.9832 28.5016 27.5C28.5016 27.0168 28.3266 26.5499 28.0091 26.1857C27.6915 25.8215 27.2529 25.5845 26.7742 25.5187L26.7574 25.5164L26.7406 25.5152L26.5386 25.5012ZM30.5343 18.5012L30.5172 18.5H30.5H17.5H17.4829L17.4658 18.5012L17.2618 18.5152L17.2448 18.5163L17.2279 18.5187C16.7492 18.5845 16.3105 18.8215 15.993 19.1857C15.6754 19.5499 15.5005 20.0168 15.5005 20.5C15.5005 20.9832 15.6754 21.4501 15.993 21.8143C16.3105 22.1785 16.7492 22.4155 17.2279 22.4813L17.2448 22.4837L17.2618 22.4848L17.4658 22.4988L17.4829 22.5H17.5H30.5H30.5172L30.5343 22.4988L30.7383 22.4848L30.7553 22.4837L30.7722 22.4813C31.2509 22.4155 31.6895 22.1785 32.0071 21.8143C32.3246 21.4501 32.4996 20.9832 32.4996 20.5C32.4996 20.0168 32.3246 19.5499 32.0071 19.1857C31.6895 18.8215 31.2509 18.5845 30.7722 18.5187L30.7553 18.5163L30.7383 18.5152L30.5343 18.5012Z" stroke="url(#paint0_linear)"/>
<defs>
<linearGradient id="paint0_linear" x1="4" y1="4" x2="44.0049" y2="44" gradientUnits="userSpaceOnUse">
<stop stop-color="#FF4E16"/>
<stop offset="0.458333" stop-color="#FF5A13"/>
<stop offset="1" stop-color="#FFB90F"/>
</linearGradient>
</defs>
</svg>
