<svg width="32" height="32" viewBox="0 0 32 32" fill="none" xmlns="http://www.w3.org/2000/svg">
<path d="M10.4697 6.46967C10.1768 6.76256 10.1768 7.23744 10.4697 7.53033L15.2426 12.3033C15.5355 12.5962 16.0104 12.5962 16.3033 12.3033C16.5962 12.0104 16.5962 11.5355 16.3033 11.2426L12.0607 7L16.3033 2.75736C16.5962 2.46447 16.5962 1.98959 16.3033 1.6967C16.0104 1.40381 15.5355 1.40381 15.2426 1.6967L10.4697 6.46967ZM27.75 23V19.1904H26.25V23H27.75ZM14.8096 6.25H11V7.75H14.8096V6.25ZM27.75 19.1904C27.75 12.0436 21.9564 6.25 14.8096 6.25V7.75C21.1279 7.75 26.25 12.8721 26.25 19.1904H27.75Z" fill="url(#paint0_linear)"/>
<path d="M20.5303 25.5303C20.8232 25.2374 20.8232 24.7626 20.5303 24.4697L15.7574 19.6967C15.4645 19.4038 14.9896 19.4038 14.6967 19.6967C14.4038 19.9896 14.4038 20.4645 14.6967 20.7574L18.9393 25L14.6967 29.2426C14.4038 29.5355 14.4038 30.0104 14.6967 30.3033C14.9896 30.5962 15.4645 30.5962 15.7574 30.3033L20.5303 25.5303ZM4.25 8V12.8096H5.75V8H4.25ZM17.1904 25.75H20V24.25H17.1904V25.75ZM4.25 12.8096C4.25 19.9564 10.0436 25.75 17.1904 25.75V24.25C10.8721 24.25 5.75 19.1279 5.75 12.8096H4.25Z" fill="url(#paint1_linear)"/>
<defs>
<linearGradient id="paint0_linear" x1="11" y1="7" x2="27" y2="23" gradientUnits="userSpaceOnUse">
<stop stop-color="#FF4E16"/>
<stop offset="0.458333" stop-color="#FF5A13"/>
<stop offset="1" stop-color="#FFB90F"/>
</linearGradient>
<linearGradient id="paint1_linear" x1="20" y1="25" x2="3.1323" y2="10.1167" gradientUnits="userSpaceOnUse">
<stop stop-color="#FF4E16"/>
<stop offset="0.458333" stop-color="#FF5A13"/>
<stop offset="1" stop-color="#FFB90F"/>
</linearGradient>
</defs>
</svg>
