<svg width="48" height="48" viewBox="0 0 48 48" fill="none" xmlns="http://www.w3.org/2000/svg">
<path d="M39.429 43.9999H8.28613C4.97242 43.9999 2.28613 41.3136 2.28613 37.9999V3.42847H34.2861V13.1428" stroke="url(#paint0_linear)"/>
<path d="M29.7144 9.71411H7.42871" stroke="url(#paint1_linear)"/>
<path d="M29.7144 15.4285H7.42871" stroke="url(#paint2_linear)"/>
<path d="M13.7146 23.4285H6.85742" stroke="url(#paint3_linear)"/>
<path d="M13.7146 29.1428H6.85742" stroke="url(#paint4_linear)"/>
<path d="M29.7146 37.1428H6.85742" stroke="url(#paint5_linear)"/>
<path d="M45.7147 12.5713H34.2861V38.2856C34.2861 41.4415 36.8445 43.9999 40.0004 43.9999C43.1563 43.9999 45.7147 41.4415 45.7147 38.2856V12.5713Z" stroke="url(#paint6_linear)"/>
<rect x="18.7861" y="21.6428" width="9.28571" height="9.28571" stroke="url(#paint7_linear)"/>
<defs>
<linearGradient id="paint0_linear" x1="2.28613" y1="3.42847" x2="42.6999" y2="40.427" gradientUnits="userSpaceOnUse">
<stop stop-color="#FF4E16"/>
<stop offset="0.458333" stop-color="#FF5A13"/>
<stop offset="1" stop-color="#FFB90F"/>
</linearGradient>
<linearGradient id="paint1_linear" x1="7.42871" y1="9.71411" x2="7.51827" y2="11.7101" gradientUnits="userSpaceOnUse">
<stop stop-color="#FF4E16"/>
<stop offset="0.458333" stop-color="#FF5A13"/>
<stop offset="1" stop-color="#FFB90F"/>
</linearGradient>
<linearGradient id="paint2_linear" x1="7.42871" y1="15.4285" x2="7.51827" y2="17.4244" gradientUnits="userSpaceOnUse">
<stop stop-color="#FF4E16"/>
<stop offset="0.458333" stop-color="#FF5A13"/>
<stop offset="1" stop-color="#FFB90F"/>
</linearGradient>
<linearGradient id="paint3_linear" x1="6.85742" y1="23.4285" x2="7.14301" y2="25.3868" gradientUnits="userSpaceOnUse">
<stop stop-color="#FF4E16"/>
<stop offset="0.458333" stop-color="#FF5A13"/>
<stop offset="1" stop-color="#FFB90F"/>
</linearGradient>
<linearGradient id="paint4_linear" x1="6.85742" y1="29.1428" x2="7.14301" y2="31.1012" gradientUnits="userSpaceOnUse">
<stop stop-color="#FF4E16"/>
<stop offset="0.458333" stop-color="#FF5A13"/>
<stop offset="1" stop-color="#FFB90F"/>
</linearGradient>
<linearGradient id="paint5_linear" x1="6.85742" y1="37.1428" x2="6.94475" y2="39.139" gradientUnits="userSpaceOnUse">
<stop stop-color="#FF4E16"/>
<stop offset="0.458333" stop-color="#FF5A13"/>
<stop offset="1" stop-color="#FFB90F"/>
</linearGradient>
<linearGradient id="paint6_linear" x1="34.2861" y1="12.5713" x2="54.4738" y2="19.9123" gradientUnits="userSpaceOnUse">
<stop stop-color="#FF4E16"/>
<stop offset="0.458333" stop-color="#FF5A13"/>
<stop offset="1" stop-color="#FFB90F"/>
</linearGradient>
<linearGradient id="paint7_linear" x1="18.2861" y1="21.1428" x2="28.5718" y2="31.4285" gradientUnits="userSpaceOnUse">
<stop stop-color="#FF4E16"/>
<stop offset="0.458333" stop-color="#FF5A13"/>
<stop offset="1" stop-color="#FFB90F"/>
</linearGradient>
</defs>
</svg>
