<svg width="24" height="24" viewBox="0 0 24 24" fill="none" xmlns="http://www.w3.org/2000/svg">
<path d="M11.9388 0.979248C5.89137 0.979248 0.972656 5.92906 0.972656 12.0147C0.972656 18.1004 5.89137 23.0502 11.9388 23.0502C17.9862 23.0502 22.9049 18.1004 22.9049 12.0147C22.9049 5.92906 17.9862 0.979248 11.9388 0.979248ZM11.9388 21.2289C6.88873 21.2289 2.78251 17.0967 2.78251 12.0147C2.78251 6.93273 6.88873 2.80055 11.9388 2.80055C16.9889 2.80055 21.0951 6.93273 21.0951 12.0147C21.0951 17.0967 16.9889 21.2289 11.9388 21.2289Z" fill="white"/>
<path d="M12 19.5C16.1421 19.5 19.5 16.1421 19.5 12C19.5 7.85786 16.1421 4.5 12 4.5C7.85786 4.5 4.5 7.85786 4.5 12C4.5 16.1421 7.85786 19.5 12 19.5Z" fill="#101017"/>
<path d="M8.02734 15.4466V17.1309H11.0194V18.9766H12.8585V17.1309H15.8506V14.9032H11.2092L15.8506 8.56782V6.88361H12.8585V5.04272H11.0194V6.88361H8.02734V9.11616H12.6687L8.02734 15.4466Z" fill="white"/>
</svg>
