<svg width="16" height="16" viewBox="0 0 16 16" fill="none" xmlns="http://www.w3.org/2000/svg">
<path d="M8.0002 0.888916C6.61585 0.890072 5.2882 1.439 4.30723 2.4158C3.32626 3.39261 2.77169 4.71791 2.76465 6.10225C2.76465 8.1778 3.92909 9.91558 4.78243 11.1822L4.93798 11.4134C5.78699 12.6439 6.69779 13.8306 7.66687 14.9689L8.00465 15.3645L8.34243 14.9689C9.31138 13.8305 10.2222 12.6438 11.0713 11.4134L11.2269 11.1778C12.0758 9.91114 13.2402 8.1778 13.2402 6.10225C13.2332 4.71714 12.678 3.39117 11.696 2.41424C10.7141 1.43731 9.38533 0.888898 8.0002 0.888916ZM8.0002 8.44447C7.42356 8.44447 6.85987 8.27348 6.38041 7.95311C5.90095 7.63275 5.52725 7.1774 5.30658 6.64465C5.08591 6.1119 5.02817 5.52568 5.14067 4.96012C5.25317 4.39456 5.53085 3.87505 5.93859 3.46731C6.34634 3.05956 6.86584 2.78188 7.43141 2.66938C7.99697 2.55688 8.58319 2.61462 9.11594 2.83529C9.64869 3.05597 10.104 3.42966 10.4244 3.90912C10.7448 4.38858 10.9158 4.95227 10.9158 5.52892C10.9158 6.30217 10.6086 7.04375 10.0618 7.59053C9.51504 8.1373 8.77346 8.44447 8.0002 8.44447Z" fill="url(#paint0_linear)"/>
<path d="M8.00055 7.18665C8.91612 7.18665 9.65833 6.44444 9.65833 5.52887C9.65833 4.61331 8.91612 3.87109 8.00055 3.87109C7.08499 3.87109 6.34277 4.61331 6.34277 5.52887C6.34277 6.44444 7.08499 7.18665 8.00055 7.18665Z" fill="url(#paint1_linear)"/>
<defs>
<linearGradient id="paint0_linear" x1="2.76465" y1="0.888916" x2="16.5148" y2="10.8395" gradientUnits="userSpaceOnUse">
<stop stop-color="#FF4E16"/>
<stop offset="0.458333" stop-color="#FF5A13"/>
<stop offset="1" stop-color="#FFB90F"/>
</linearGradient>
<linearGradient id="paint1_linear" x1="6.34277" y1="3.87109" x2="9.65833" y2="7.18665" gradientUnits="userSpaceOnUse">
<stop stop-color="#FF4E16"/>
<stop offset="0.458333" stop-color="#FF5A13"/>
<stop offset="1" stop-color="#FFB90F"/>
</linearGradient>
</defs>
</svg>
