<svg width="206" height="206" viewBox="0 0 206 206" fill="none" xmlns="http://www.w3.org/2000/svg">
<path d="M41.3776 48.7142H171.06C175.91 48.7142 180.25 53.1941 180.25 58.201V80.337C180.25 85.6075 175.91 89.8238 171.06 89.8238H41.3776C36.272 89.8238 32.1875 85.6075 32.1875 80.337V58.201C32.1875 53.1941 36.272 48.7142 41.3776 48.7142ZM169.018 71.3772V67.1608C169.018 65.5797 167.486 63.9985 165.954 63.9985H149.616C147.829 63.9985 146.553 65.5797 146.553 67.1608V71.3772C146.553 73.2219 147.829 74.5395 149.616 74.5395H165.954C167.486 74.5395 169.018 73.2219 169.018 71.3772ZM41.3776 103.64H171.06C175.91 103.64 180.25 107.856 180.25 113.127V135.263C180.25 140.533 175.91 144.75 171.06 144.75H41.3776C36.272 144.75 32.1875 140.533 32.1875 135.263V113.127C32.1875 107.856 36.272 103.64 41.3776 103.64ZM169.018 126.303V122.087C169.018 120.505 167.486 118.924 165.954 118.924H149.616C147.829 118.924 146.553 120.505 146.553 122.087V126.303C146.553 128.148 147.829 129.465 149.616 129.465H165.954C167.486 129.465 169.018 128.148 169.018 126.303ZM41.3776 158.566H171.06C175.91 158.566 180.25 162.782 180.25 168.053V190.189C180.25 195.459 175.91 199.675 171.06 199.675H41.3776C36.272 199.675 32.1875 195.459 32.1875 190.189V168.053C32.1875 162.782 36.272 158.566 41.3776 158.566ZM169.018 181.229V177.012C169.018 175.168 167.486 173.85 165.954 173.85H149.616C147.829 173.85 146.553 175.168 146.553 177.012V181.229C146.553 183.073 147.829 184.391 149.616 184.391H165.954C167.486 184.391 169.018 183.073 169.018 181.229ZM171.06 35.1616H41.3776C39.8459 35.1616 38.3142 35.4251 37.0378 35.9521L52.6099 14.0797C55.6733 9.8633 62.3106 6.4375 67.4162 6.4375H145.021C149.872 6.4375 156.509 9.8633 159.572 14.0797L175.4 35.9521C173.868 35.4251 172.336 35.1616 171.06 35.1616Z" stroke="url(#paint0_linear)" stroke-width="3"/>
<defs>
<linearGradient id="paint0_linear" x1="32.1875" y1="6.4375" x2="218.771" y2="149.401" gradientUnits="userSpaceOnUse">
<stop stop-color="#FF4E16"/>
<stop offset="0.458333" stop-color="#FF5A13"/>
<stop offset="1" stop-color="#FFB90F"/>
</linearGradient>
</defs>
</svg>
