<svg width="142" height="142" viewBox="0 0 142 142" fill="none" xmlns="http://www.w3.org/2000/svg">
<path d="M115.135 122.811H26.8651C24.8294 122.811 22.8771 122.002 21.4376 120.563C19.9981 119.123 19.1895 117.171 19.1895 115.135V26.8651C19.1895 24.8294 19.9981 22.8771 21.4376 21.4376C22.8771 19.9981 24.8294 19.1895 26.8651 19.1895H115.135C117.171 19.1895 119.123 19.9981 120.563 21.4376C122.002 22.8771 122.811 24.8294 122.811 26.8651V115.135C122.811 117.171 122.002 119.123 120.563 120.563C119.123 122.002 117.171 122.811 115.135 122.811ZM26.8651 23.0273C25.8473 23.0273 24.8711 23.4316 24.1514 24.1514C23.4316 24.8711 23.0273 25.8473 23.0273 26.8651V115.135C23.0273 116.153 23.4316 117.129 24.1514 117.849C24.8711 118.569 25.8473 118.973 26.8651 118.973H115.135C116.153 118.973 117.129 118.569 117.849 117.849C118.569 117.129 118.973 116.153 118.973 115.135V26.8651C118.973 25.8473 118.569 24.8711 117.849 24.1514C117.129 23.4316 116.153 23.0273 115.135 23.0273H26.8651Z" fill="url(#paint0_linear)"/>
<path d="M32.6211 90.3079C32.1121 90.3079 31.6241 90.1057 31.2642 89.7459C30.9043 89.386 30.7021 88.8979 30.7021 88.389V84.7929C30.7021 84.284 30.9043 83.7959 31.2642 83.4361C31.6241 83.0762 32.1121 82.874 32.6211 82.874C33.13 82.874 33.6181 83.0762 33.9779 83.4361C34.3378 83.7959 34.54 84.284 34.54 84.7929V88.389C34.54 88.8979 34.3378 89.386 33.9779 89.7459C33.6181 90.1057 33.13 90.3079 32.6211 90.3079Z" fill="url(#paint1_linear)"/>
<path d="M107.459 111.297H34.54C33.5221 111.297 32.546 110.892 31.8262 110.173C31.1065 109.453 30.7021 108.477 30.7021 107.459V97.9833C30.7021 97.4743 30.9043 96.9863 31.2642 96.6264C31.6241 96.2665 32.1121 96.0644 32.6211 96.0644C33.13 96.0644 33.6181 96.2665 33.9779 96.6264C34.3378 96.9863 34.54 97.4743 34.54 97.9833V107.459H107.459V34.54H34.54V75.198C34.54 75.707 34.3378 76.1951 33.9779 76.5549C33.6181 76.9148 33.13 77.117 32.6211 77.117C32.1121 77.117 31.6241 76.9148 31.2642 76.5549C30.9043 76.1951 30.7021 75.707 30.7021 75.198V34.54C30.7021 33.5221 31.1065 32.546 31.8262 31.8262C32.546 31.1065 33.5221 30.7021 34.54 30.7021H107.459C108.477 30.7021 109.453 31.1065 110.173 31.8262C110.892 32.546 111.297 33.5221 111.297 34.54V107.459C111.297 108.477 110.892 109.453 110.173 110.173C109.453 110.892 108.477 111.297 107.459 111.297Z" fill="url(#paint2_linear)"/>
<path d="M105.54 23.0271C105.031 23.0271 104.543 22.8249 104.183 22.465C103.823 22.1052 103.621 21.6171 103.621 21.1082V5.75681C103.621 5.24788 103.823 4.7598 104.183 4.39993C104.543 4.04006 105.031 3.83789 105.54 3.83789C106.049 3.83789 106.537 4.04006 106.897 4.39993C107.257 4.7598 107.459 5.24788 107.459 5.75681V21.1082C107.459 21.6171 107.257 22.1052 106.897 22.465C106.537 22.8249 106.049 23.0271 105.54 23.0271Z" fill="url(#paint3_linear)"/>
<path d="M91.7246 23.0271C91.2157 23.0271 90.7276 22.8249 90.3677 22.465C90.0078 22.1052 89.8057 21.6171 89.8057 21.1082V5.75681C89.8057 5.24788 90.0078 4.7598 90.3677 4.39993C90.7276 4.04006 91.2157 3.83789 91.7246 3.83789C92.2335 3.83789 92.7216 4.04006 93.0815 4.39993C93.4413 4.7598 93.6435 5.24788 93.6435 5.75681V21.1082C93.6435 21.6171 93.4413 22.1052 93.0815 22.465C92.7216 22.8249 92.2335 23.0271 91.7246 23.0271Z" fill="url(#paint4_linear)"/>
<path d="M77.9082 23.0271C77.3993 23.0271 76.9112 22.8249 76.5513 22.465C76.1914 22.1052 75.9893 21.6171 75.9893 21.1082V5.75681C75.9893 5.24788 76.1914 4.7598 76.5513 4.39993C76.9112 4.04006 77.3993 3.83789 77.9082 3.83789C78.4171 3.83789 78.9052 4.04006 79.2651 4.39993C79.6249 4.7598 79.8271 5.24788 79.8271 5.75681V21.1082C79.8271 21.6171 79.6249 22.1052 79.2651 22.465C78.9052 22.8249 78.4171 23.0271 77.9082 23.0271Z" fill="url(#paint5_linear)"/>
<path d="M64.0918 23.0271C63.5828 23.0271 63.0948 22.8249 62.7349 22.465C62.375 22.1052 62.1729 21.6171 62.1729 21.1082V5.75681C62.1729 5.24788 62.375 4.7598 62.7349 4.39993C63.0948 4.04006 63.5828 3.83789 64.0918 3.83789C64.6007 3.83789 65.0888 4.04006 65.4486 4.39993C65.8085 4.7598 66.0107 5.24788 66.0107 5.75681V21.1082C66.0107 21.6171 65.8085 22.1052 65.4486 22.465C65.0888 22.8249 64.6007 23.0271 64.0918 23.0271Z" fill="url(#paint6_linear)"/>
<path d="M50.2754 23.0271C49.7664 23.0271 49.2783 22.8249 48.9185 22.465C48.5586 22.1052 48.3564 21.6171 48.3564 21.1082V5.75681C48.3564 5.24788 48.5586 4.7598 48.9185 4.39993C49.2783 4.04006 49.7664 3.83789 50.2754 3.83789C50.7843 3.83789 51.2724 4.04006 51.6322 4.39993C51.9921 4.7598 52.1943 5.24788 52.1943 5.75681V21.1082C52.1943 21.6171 51.9921 22.1052 51.6322 22.465C51.2724 22.8249 50.7843 23.0271 50.2754 23.0271Z" fill="url(#paint7_linear)"/>
<path d="M36.459 23.0271C35.95 23.0271 35.4619 22.8249 35.1021 22.465C34.7422 22.1052 34.54 21.6171 34.54 21.1082V5.75681C34.54 5.24788 34.7422 4.7598 35.1021 4.39993C35.4619 4.04006 35.95 3.83789 36.459 3.83789C36.9679 3.83789 37.456 4.04006 37.8158 4.39993C38.1757 4.7598 38.3779 5.24788 38.3779 5.75681V21.1082C38.3779 21.6171 38.1757 22.1052 37.8158 22.465C37.456 22.8249 36.9679 23.0271 36.459 23.0271Z" fill="url(#paint8_linear)"/>
<path d="M105.54 138.162C105.031 138.162 104.543 137.96 104.183 137.6C103.823 137.24 103.621 136.752 103.621 136.243V120.892C103.621 120.383 103.823 119.895 104.183 119.535C104.543 119.175 105.031 118.973 105.54 118.973C106.049 118.973 106.537 119.175 106.897 119.535C107.257 119.895 107.459 120.383 107.459 120.892V136.243C107.459 136.752 107.257 137.24 106.897 137.6C106.537 137.96 106.049 138.162 105.54 138.162Z" fill="url(#paint9_linear)"/>
<path d="M91.7246 138.162C91.2157 138.162 90.7276 137.96 90.3677 137.6C90.0078 137.24 89.8057 136.752 89.8057 136.243V120.892C89.8057 120.383 90.0078 119.895 90.3677 119.535C90.7276 119.175 91.2157 118.973 91.7246 118.973C92.2335 118.973 92.7216 119.175 93.0815 119.535C93.4413 119.895 93.6435 120.383 93.6435 120.892V136.243C93.6435 136.752 93.4413 137.24 93.0815 137.6C92.7216 137.96 92.2335 138.162 91.7246 138.162Z" fill="url(#paint10_linear)"/>
<path d="M77.9082 138.162C77.3993 138.162 76.9112 137.96 76.5513 137.6C76.1914 137.24 75.9893 136.752 75.9893 136.243V120.892C75.9893 120.383 76.1914 119.895 76.5513 119.535C76.9112 119.175 77.3993 118.973 77.9082 118.973C78.4171 118.973 78.9052 119.175 79.2651 119.535C79.6249 119.895 79.8271 120.383 79.8271 120.892V136.243C79.8271 136.752 79.6249 137.24 79.2651 137.6C78.9052 137.96 78.4171 138.162 77.9082 138.162Z" fill="url(#paint11_linear)"/>
<path d="M64.0918 138.162C63.5828 138.162 63.0948 137.96 62.7349 137.6C62.375 137.24 62.1729 136.752 62.1729 136.243V120.892C62.1729 120.383 62.375 119.895 62.7349 119.535C63.0948 119.175 63.5828 118.973 64.0918 118.973C64.6007 118.973 65.0888 119.175 65.4486 119.535C65.8085 119.895 66.0107 120.383 66.0107 120.892V136.243C66.0107 136.752 65.8085 137.24 65.4486 137.6C65.0888 137.96 64.6007 138.162 64.0918 138.162Z" fill="url(#paint12_linear)"/>
<path d="M50.2754 138.162C49.7664 138.162 49.2783 137.96 48.9185 137.6C48.5586 137.24 48.3564 136.752 48.3564 136.243V120.892C48.3564 120.383 48.5586 119.895 48.9185 119.535C49.2783 119.175 49.7664 118.973 50.2754 118.973C50.7843 118.973 51.2724 119.175 51.6322 119.535C51.9921 119.895 52.1943 120.383 52.1943 120.892V136.243C52.1943 136.752 51.9921 137.24 51.6322 137.6C51.2724 137.96 50.7843 138.162 50.2754 138.162Z" fill="url(#paint13_linear)"/>
<path d="M36.459 138.162C35.95 138.162 35.4619 137.96 35.1021 137.6C34.7422 137.24 34.54 136.752 34.54 136.243V120.892C34.54 120.383 34.7422 119.895 35.1021 119.535C35.4619 119.175 35.95 118.973 36.459 118.973C36.9679 118.973 37.456 119.175 37.8158 119.535C38.1757 119.895 38.3779 120.383 38.3779 120.892V136.243C38.3779 136.752 38.1757 137.24 37.8158 137.6C37.456 137.96 36.9679 138.162 36.459 138.162Z" fill="url(#paint14_linear)"/>
<path d="M136.243 107.459H120.892C120.383 107.459 119.895 107.257 119.535 106.897C119.175 106.537 118.973 106.049 118.973 105.54C118.973 105.031 119.175 104.543 119.535 104.183C119.895 103.823 120.383 103.621 120.892 103.621H136.243C136.752 103.621 137.24 103.823 137.6 104.183C137.96 104.543 138.162 105.031 138.162 105.54C138.162 106.049 137.96 106.537 137.6 106.897C137.24 107.257 136.752 107.459 136.243 107.459Z" fill="url(#paint15_linear)"/>
<path d="M136.243 93.6435H120.892C120.383 93.6435 119.895 93.4413 119.535 93.0815C119.175 92.7216 118.973 92.2335 118.973 91.7246C118.973 91.2157 119.175 90.7276 119.535 90.3677C119.895 90.0078 120.383 89.8057 120.892 89.8057H136.243C136.752 89.8057 137.24 90.0078 137.6 90.3677C137.96 90.7276 138.162 91.2157 138.162 91.7246C138.162 92.2335 137.96 92.7216 137.6 93.0815C137.24 93.4413 136.752 93.6435 136.243 93.6435Z" fill="url(#paint16_linear)"/>
<path d="M136.243 79.8271H120.892C120.383 79.8271 119.895 79.6249 119.535 79.2651C119.175 78.9052 118.973 78.4171 118.973 77.9082C118.973 77.3993 119.175 76.9112 119.535 76.5513C119.895 76.1914 120.383 75.9893 120.892 75.9893H136.243C136.752 75.9893 137.24 76.1914 137.6 76.5513C137.96 76.9112 138.162 77.3993 138.162 77.9082C138.162 78.4171 137.96 78.9052 137.6 79.2651C137.24 79.6249 136.752 79.8271 136.243 79.8271Z" fill="url(#paint17_linear)"/>
<path d="M136.243 66.0107H120.892C120.383 66.0107 119.895 65.8085 119.535 65.4486C119.175 65.0888 118.973 64.6007 118.973 64.0918C118.973 63.5828 119.175 63.0948 119.535 62.7349C119.895 62.375 120.383 62.1729 120.892 62.1729H136.243C136.752 62.1729 137.24 62.375 137.6 62.7349C137.96 63.0948 138.162 63.5828 138.162 64.0918C138.162 64.6007 137.96 65.0888 137.6 65.4486C137.24 65.8085 136.752 66.0107 136.243 66.0107Z" fill="url(#paint18_linear)"/>
<path d="M136.243 52.1943H120.892C120.383 52.1943 119.895 51.9921 119.535 51.6322C119.175 51.2724 118.973 50.7843 118.973 50.2754C118.973 49.7664 119.175 49.2783 119.535 48.9185C119.895 48.5586 120.383 48.3564 120.892 48.3564H136.243C136.752 48.3564 137.24 48.5586 137.6 48.9185C137.96 49.2783 138.162 49.7664 138.162 50.2754C138.162 50.7843 137.96 51.2724 137.6 51.6322C137.24 51.9921 136.752 52.1943 136.243 52.1943Z" fill="url(#paint19_linear)"/>
<path d="M136.243 38.3779H120.892C120.383 38.3779 119.895 38.1757 119.535 37.8158C119.175 37.456 118.973 36.9679 118.973 36.459C118.973 35.95 119.175 35.4619 119.535 35.1021C119.895 34.7422 120.383 34.54 120.892 34.54H136.243C136.752 34.54 137.24 34.7422 137.6 35.1021C137.96 35.4619 138.162 35.95 138.162 36.459C138.162 36.9679 137.96 37.456 137.6 37.8158C137.24 38.1757 136.752 38.3779 136.243 38.3779Z" fill="url(#paint20_linear)"/>
<path d="M21.1082 107.459H5.75681C5.24788 107.459 4.7598 107.257 4.39993 106.897C4.04006 106.537 3.83789 106.049 3.83789 105.54C3.83789 105.031 4.04006 104.543 4.39993 104.183C4.7598 103.823 5.24788 103.621 5.75681 103.621H21.1082C21.6171 103.621 22.1052 103.823 22.465 104.183C22.8249 104.543 23.0271 105.031 23.0271 105.54C23.0271 106.049 22.8249 106.537 22.465 106.897C22.1052 107.257 21.6171 107.459 21.1082 107.459Z" fill="url(#paint21_linear)"/>
<path d="M21.1082 93.6435H5.75681C5.24788 93.6435 4.7598 93.4413 4.39993 93.0815C4.04006 92.7216 3.83789 92.2335 3.83789 91.7246C3.83789 91.2157 4.04006 90.7276 4.39993 90.3677C4.7598 90.0078 5.24788 89.8057 5.75681 89.8057H21.1082C21.6171 89.8057 22.1052 90.0078 22.465 90.3677C22.8249 90.7276 23.0271 91.2157 23.0271 91.7246C23.0271 92.2335 22.8249 92.7216 22.465 93.0815C22.1052 93.4413 21.6171 93.6435 21.1082 93.6435Z" fill="url(#paint22_linear)"/>
<path d="M21.1082 79.8271H5.75681C5.24788 79.8271 4.7598 79.6249 4.39993 79.2651C4.04006 78.9052 3.83789 78.4171 3.83789 77.9082C3.83789 77.3993 4.04006 76.9112 4.39993 76.5513C4.7598 76.1914 5.24788 75.9893 5.75681 75.9893H21.1082C21.6171 75.9893 22.1052 76.1914 22.465 76.5513C22.8249 76.9112 23.0271 77.3993 23.0271 77.9082C23.0271 78.4171 22.8249 78.9052 22.465 79.2651C22.1052 79.6249 21.6171 79.8271 21.1082 79.8271Z" fill="url(#paint23_linear)"/>
<path d="M21.1082 66.0107H5.75681C5.24788 66.0107 4.7598 65.8085 4.39993 65.4486C4.04006 65.0888 3.83789 64.6007 3.83789 64.0918C3.83789 63.5828 4.04006 63.0948 4.39993 62.7349C4.7598 62.375 5.24788 62.1729 5.75681 62.1729H21.1082C21.6171 62.1729 22.1052 62.375 22.465 62.7349C22.8249 63.0948 23.0271 63.5828 23.0271 64.0918C23.0271 64.6007 22.8249 65.0888 22.465 65.4486C22.1052 65.8085 21.6171 66.0107 21.1082 66.0107Z" fill="url(#paint24_linear)"/>
<path d="M21.1082 52.1943H5.75681C5.24788 52.1943 4.7598 51.9921 4.39993 51.6322C4.04006 51.2724 3.83789 50.7843 3.83789 50.2754C3.83789 49.7664 4.04006 49.2783 4.39993 48.9185C4.7598 48.5586 5.24788 48.3564 5.75681 48.3564H21.1082C21.6171 48.3564 22.1052 48.5586 22.465 48.9185C22.8249 49.2783 23.0271 49.7664 23.0271 50.2754C23.0271 50.7843 22.8249 51.2724 22.465 51.6322C22.1052 51.9921 21.6171 52.1943 21.1082 52.1943Z" fill="url(#paint25_linear)"/>
<path d="M21.1082 38.3779H5.75681C5.24788 38.3779 4.7598 38.1757 4.39993 37.8158C4.04006 37.456 3.83789 36.9679 3.83789 36.459C3.83789 35.95 4.04006 35.4619 4.39993 35.1021C4.7598 34.7422 5.24788 34.54 5.75681 34.54H21.1082C21.6171 34.54 22.1052 34.7422 22.465 35.1021C22.8249 35.4619 23.0271 35.95 23.0271 36.459C23.0271 36.9679 22.8249 37.456 22.465 37.8158C22.1052 38.1757 21.6171 38.3779 21.1082 38.3779Z" fill="url(#paint26_linear)"/>
<path d="M57.567 49.8925H32.6211C32.1121 49.8925 31.6241 49.6904 31.2642 49.3305C30.9043 48.9706 30.7021 48.4825 30.7021 47.9736C30.7021 47.4647 30.9043 46.9766 31.2642 46.6167C31.6241 46.2569 32.1121 46.0547 32.6211 46.0547H57.567C58.0759 46.0547 58.564 46.2569 58.9239 46.6167C59.2838 46.9766 59.4859 47.4647 59.4859 47.9736C59.4859 48.4825 59.2838 48.9706 58.9239 49.3305C58.564 49.6904 58.0759 49.8925 57.567 49.8925Z" fill="url(#paint27_linear)"/>
<path d="M62.9039 55.2286C61.4689 55.2286 60.0661 54.8031 58.873 54.0059C57.6798 53.2086 56.7499 52.0755 56.2007 50.7497C55.6516 49.424 55.5079 47.9652 55.7879 46.5577C56.0678 45.1503 56.7588 43.8575 57.7735 42.8428C58.7882 41.8282 60.081 41.1371 61.4884 40.8572C62.8958 40.5772 64.3546 40.7209 65.6804 41.2701C67.0062 41.8192 68.1393 42.7492 68.9365 43.9423C69.7338 45.1355 70.1593 46.5382 70.1593 47.9732C70.1573 49.8968 69.3922 51.7411 68.032 53.1013C66.6718 54.4615 64.8275 55.2266 62.9039 55.2286ZM62.9039 44.5556C62.2279 44.5556 61.5672 44.7561 61.0052 45.1316C60.4431 45.5071 60.0051 46.0409 59.7464 46.6654C59.4878 47.2898 59.4201 47.977 59.5519 48.6399C59.6838 49.3029 60.0093 49.9119 60.4873 50.3898C60.9652 50.8678 61.5742 51.1933 62.2371 51.3251C62.9001 51.457 63.5872 51.3893 64.2117 51.1307C64.8362 50.872 65.37 50.4339 65.7455 49.8719C66.121 49.3099 66.3215 48.6491 66.3215 47.9732C66.3205 47.0671 65.9601 46.1984 65.3194 45.5577C64.6787 44.917 63.81 44.5566 62.9039 44.5556Z" fill="url(#paint28_linear)"/>
<path d="M109.378 90.1894H91.2636C90.7547 90.1894 90.2666 89.9872 89.9068 89.6274C89.5469 89.2675 89.3447 88.7794 89.3447 88.2705C89.3447 87.7616 89.5469 87.2735 89.9068 86.9136C90.2666 86.5537 90.7547 86.3516 91.2636 86.3516H109.378C109.887 86.3516 110.375 86.5537 110.735 86.9136C111.095 87.2735 111.297 87.7616 111.297 88.2705C111.297 88.7794 111.095 89.2675 110.735 89.6274C110.375 89.9872 109.887 90.1894 109.378 90.1894Z" fill="url(#paint29_linear)"/>
<path d="M85.9312 95.5255C84.4962 95.5255 83.0935 95.1 81.9003 94.3028C80.7072 93.5055 79.7772 92.3724 79.2281 91.0466C78.6789 89.7209 78.5352 88.262 78.8152 86.8546C79.0951 85.4472 79.7862 84.1544 80.8009 83.1397C81.8155 82.125 83.1083 81.434 84.5157 81.1541C85.9232 80.8741 87.382 81.0178 88.7077 81.5669C90.0335 82.1161 91.1666 83.046 91.9639 84.2392C92.7611 85.4323 93.1866 86.8351 93.1866 88.2701C93.1846 90.1937 92.4195 92.038 91.0593 93.3982C89.6991 94.7584 87.8548 95.5235 85.9312 95.5255ZM85.9312 84.8525C85.2553 84.8525 84.5945 85.0529 84.0325 85.4285C83.4705 85.804 83.0324 86.3377 82.7738 86.9622C82.5151 87.5867 82.4474 88.2739 82.5793 88.9368C82.7112 89.5998 83.0367 90.2087 83.5146 90.6867C83.9926 91.1647 84.6015 91.4901 85.2645 91.622C85.9274 91.7539 86.6146 91.6862 87.2391 91.4275C87.8635 91.1689 88.3973 90.7308 88.7728 90.1688C89.1484 89.6068 89.3488 88.946 89.3488 88.2701C89.3478 87.364 88.9874 86.4953 88.3467 85.8546C87.706 85.2139 86.8373 84.8535 85.9312 84.8525Z" fill="url(#paint30_linear)"/>
<path d="M53.3101 72.5148C51.8751 72.5148 50.4724 72.0893 49.2792 71.292C48.0861 70.4948 47.1561 69.3616 46.607 68.0359C46.0578 66.7101 45.9141 65.2513 46.1941 63.8439C46.4741 62.4365 47.1651 61.1437 48.1798 60.129C49.1944 59.1143 50.4872 58.4233 51.8947 58.1433C53.3021 57.8634 54.7609 58.007 56.0867 58.5562C57.4124 59.1053 58.5456 60.0353 59.3428 61.2284C60.14 62.4216 60.5656 63.8244 60.5656 65.2593C60.5635 67.183 59.7985 69.0272 58.4382 70.3875C57.078 71.7477 55.2338 72.5128 53.3101 72.5148ZM53.3101 61.8418C52.6342 61.8418 51.9734 62.0422 51.4114 62.4177C50.8494 62.7932 50.4113 63.327 50.1527 63.9515C49.894 64.576 49.8263 65.2631 49.9582 65.9261C50.0901 66.589 50.4156 67.198 50.8935 67.6759C51.3715 68.1539 51.9804 68.4794 52.6434 68.6113C53.3063 68.7431 53.9935 68.6755 54.618 68.4168C55.2425 68.1581 55.7762 67.7201 56.1518 67.1581C56.5273 66.596 56.7277 65.9353 56.7277 65.2593C56.7272 64.3531 56.367 63.4841 55.7262 62.8433C55.0854 62.2025 54.2164 61.8423 53.3101 61.8418Z" fill="url(#paint31_linear)"/>
<path d="M47.9724 67.1621H32.6211C32.1121 67.1621 31.6241 66.9599 31.2642 66.6C30.9043 66.2402 30.7021 65.7521 30.7021 65.2431C30.7021 64.7342 30.9043 64.2461 31.2642 63.8863C31.6241 63.5264 32.1121 63.3242 32.6211 63.3242H47.9724C48.4813 63.3242 48.9694 63.5264 49.3293 63.8863C49.6892 64.2461 49.8913 64.7342 49.8913 65.2431C49.8913 65.7521 49.6892 66.2402 49.3293 66.6C48.9694 66.9599 48.4813 67.1621 47.9724 67.1621Z" fill="url(#paint32_linear)"/>
<path d="M48.933 97.0242C47.6047 97.0242 46.3062 96.6303 45.2017 95.8923C44.0972 95.1543 43.2364 94.1054 42.728 92.8782C42.2197 91.651 42.0867 90.3006 42.3458 88.9977C42.605 87.6949 43.2447 86.4982 44.1839 85.5589C45.1232 84.6197 46.3199 83.98 47.6227 83.7209C48.9256 83.4617 50.276 83.5947 51.5032 84.103C52.7304 84.6114 53.7794 85.4722 54.5173 86.5767C55.2553 87.6812 55.6492 88.9797 55.6492 90.308C55.6492 92.0893 54.9416 93.7975 53.6821 95.0571C52.4226 96.3166 50.7143 97.0242 48.933 97.0242ZM48.933 87.4296C48.3637 87.4296 47.8072 87.5984 47.3339 87.9147C46.8605 88.231 46.4916 88.6805 46.2737 89.2065C46.0559 89.7325 45.9989 90.3112 46.1099 90.8696C46.221 91.4279 46.4951 91.9408 46.8977 92.3433C47.3002 92.7459 47.8131 93.02 48.3715 93.1311C48.9298 93.2421 49.5086 93.1851 50.0345 92.9673C50.5605 92.7494 51.01 92.3805 51.3263 91.9071C51.6426 91.4338 51.8114 90.8773 51.8114 90.308C51.8114 89.5446 51.5081 88.8125 50.9683 88.2727C50.4285 87.7329 49.6964 87.4296 48.933 87.4296Z" fill="url(#paint33_linear)"/>
<path d="M57.146 111.297C56.6371 111.297 56.149 111.095 55.7891 110.735C55.4292 110.375 55.2271 109.887 55.2271 109.378V98.2755L51.4276 94.4818C51.2443 94.3048 51.0982 94.093 50.9976 93.8589C50.897 93.6248 50.8441 93.373 50.8419 93.1182C50.8397 92.8634 50.8882 92.6107 50.9847 92.3749C51.0812 92.1391 51.2237 91.9248 51.4038 91.7447C51.584 91.5645 51.7983 91.422 52.0341 91.3255C52.2699 91.229 52.5226 91.1805 52.7774 91.1827C53.0322 91.1849 53.284 91.2378 53.5181 91.3384C53.7522 91.439 53.964 91.5852 54.141 91.7684L58.4969 96.1244C58.8568 96.4842 59.059 96.9722 59.0592 97.4811V109.378C59.0592 109.886 58.8578 110.374 58.4992 110.733C58.1405 111.093 57.6539 111.296 57.146 111.297Z" fill="url(#paint34_linear)"/>
<path d="M86.4701 59.1561C85.1418 59.1561 83.8433 58.7622 82.7388 58.0242C81.6343 57.2862 80.7735 56.2373 80.2651 55.01C79.7568 53.7828 79.6238 52.4324 79.883 51.1296C80.1421 49.8268 80.7818 48.63 81.721 47.6908C82.6603 46.7515 83.857 46.1118 85.1599 45.8527C86.4627 45.5935 87.8131 45.7265 89.0403 46.2349C90.2675 46.7432 91.3165 47.604 92.0544 48.7085C92.7924 49.813 93.1863 51.1115 93.1863 52.4398C93.1838 54.2203 92.4754 55.9271 91.2164 57.1861C89.9574 58.4451 88.2506 59.1535 86.4701 59.1561ZM86.4701 49.5615C85.9008 49.5615 85.3443 49.7303 84.871 50.0466C84.3976 50.3628 84.0287 50.8124 83.8108 51.3383C83.593 51.8643 83.536 52.443 83.647 53.0014C83.7581 53.5597 84.0322 54.0726 84.4348 54.4752C84.8373 54.8777 85.3502 55.1519 85.9086 55.2629C86.4669 55.374 87.0457 55.317 87.5716 55.0991C88.0976 54.8813 88.5471 54.5123 88.8634 54.039C89.1797 53.5656 89.3485 53.0091 89.3485 52.4398C89.3485 51.6765 89.0452 50.9443 88.5054 50.4045C87.9656 49.8647 87.2335 49.5615 86.4701 49.5615Z" fill="url(#paint35_linear)"/>
<path d="M89.2876 50.5004C88.9082 50.5003 88.5373 50.3878 88.2218 50.1769C87.9063 49.966 87.6604 49.6664 87.5152 49.3158C87.37 48.9652 87.332 48.5794 87.406 48.2073C87.48 47.8351 87.6627 47.4932 87.931 47.2248L92.2869 42.8689C92.6467 42.509 93.1347 42.3067 93.6436 42.3066H109.379C109.888 42.3066 110.376 42.5088 110.736 42.8687C111.095 43.2285 111.298 43.7166 111.298 44.2256C111.298 44.7345 111.095 45.2226 110.736 45.5824C110.376 45.9423 109.888 46.1445 109.379 46.1445H94.438L90.6443 49.9382C90.4666 50.117 90.2552 50.2587 90.0223 50.3553C89.7895 50.4518 89.5397 50.5011 89.2876 50.5004Z" fill="url(#paint36_linear)"/>
<path d="M86.891 77.5496C85.5627 77.5496 84.2642 77.1557 83.1597 76.4177C82.0552 75.6798 81.1944 74.6308 80.686 73.4036C80.1777 72.1764 80.0447 70.826 80.3039 69.5231C80.563 68.2203 81.2027 67.0236 82.1419 66.0843C83.0812 65.145 84.2779 64.5054 85.5808 64.2462C86.8836 63.9871 88.234 64.1201 89.4612 64.6284C90.6884 65.1368 91.7374 65.9976 92.4753 67.1021C93.2133 68.2066 93.6072 69.5051 93.6072 70.8334C93.6072 72.6147 92.8996 74.323 91.6401 75.5825C90.3806 76.842 88.6723 77.5496 86.891 77.5496ZM86.891 67.955C86.3217 67.955 85.7652 68.1238 85.2919 68.4401C84.8185 68.7564 84.4496 69.2059 84.2317 69.7319C84.0139 70.2579 83.9569 70.8366 84.068 71.395C84.179 71.9533 84.4532 72.4662 84.8557 72.8687C85.2583 73.2713 85.7711 73.5454 86.3295 73.6565C86.8878 73.7675 87.4666 73.7105 87.9925 73.4927C88.5185 73.2748 88.968 72.9059 89.2843 72.4326C89.6006 71.9592 89.7694 71.4027 89.7694 70.8334C89.7694 70.07 89.4661 69.3379 88.9263 68.7981C88.3865 68.2583 87.6544 67.955 86.891 67.955Z" fill="url(#paint37_linear)"/>
<path d="M89.7095 68.8891C89.3301 68.889 88.9591 68.7764 88.6436 68.5656C88.3282 68.3547 88.0823 68.055 87.9371 67.7045C87.7919 67.3539 87.7539 66.9681 87.8279 66.5959C87.9019 66.2237 88.0846 65.8819 88.3528 65.6135L92.7088 61.2576C93.0686 60.8977 93.5566 60.6954 94.0655 60.6953H109.378C109.887 60.6953 110.375 60.8975 110.735 61.2574C111.095 61.6172 111.297 62.1053 111.297 62.6142C111.297 63.1232 111.095 63.6112 110.735 63.9711C110.375 64.331 109.887 64.5332 109.378 64.5332H94.8599L91.0662 68.3268C90.7064 68.6867 90.2184 68.889 89.7095 68.8891Z" fill="url(#paint38_linear)"/>
<path d="M66.7935 85.9308C65.3585 85.9308 63.9558 85.5053 62.7626 84.708C61.5695 83.9108 60.6395 82.7776 60.0904 81.4519C59.5412 80.1261 59.3975 78.6673 59.6775 77.2599C59.9575 75.8525 60.6485 74.5597 61.6632 73.545C62.6778 72.5303 63.9706 71.8393 65.378 71.5593C66.7855 71.2794 68.2443 71.4231 69.57 71.9722C70.8958 72.5214 72.0289 73.4513 72.8262 74.6444C73.6234 75.8376 74.0489 77.2404 74.0489 78.6754C74.0469 80.599 73.2818 82.4433 71.9216 83.8035C70.5614 85.1637 68.7171 85.9287 66.7935 85.9308ZM66.7935 75.2578C66.1176 75.2578 65.4568 75.4582 64.8948 75.8337C64.3328 76.2093 63.8947 76.743 63.6361 77.3675C63.3774 77.992 63.3097 78.6791 63.4416 79.3421C63.5735 80.005 63.899 80.614 64.3769 81.092C64.8549 81.5699 65.4638 81.8954 66.1268 82.0273C66.7897 82.1591 67.4769 82.0915 68.1014 81.8328C68.7259 81.5741 69.2596 81.1361 69.6351 80.5741C70.0107 80.012 70.2111 79.3513 70.2111 78.6754C70.2101 77.7693 69.8497 76.9006 69.209 76.2599C68.5683 75.6192 67.6996 75.2588 66.7935 75.2578Z" fill="url(#paint39_linear)"/>
<path d="M72.9191 111.297C72.4101 111.297 71.9221 111.095 71.5622 110.735C71.2023 110.375 71.0001 109.887 71.0001 109.378V99.7717L65.4353 94.2069C65.0754 93.8471 64.8732 93.3591 64.873 92.8502V84.0097C64.873 83.5008 65.0752 83.0127 65.4351 82.6529C65.7949 82.293 66.283 82.0908 66.792 82.0908C67.3009 82.0908 67.789 82.293 68.1488 82.6529C68.5087 83.0127 68.7109 83.5008 68.7109 84.0097V92.0692L74.2757 97.6341C74.6324 97.9906 74.8343 98.4731 74.838 98.9773V109.378C74.838 109.887 74.6358 110.375 74.2759 110.735C73.9161 111.095 73.428 111.297 72.9191 111.297Z" fill="url(#paint40_linear)"/>
<defs>
<linearGradient id="paint0_linear" x1="19.1895" y1="19.1895" x2="122.811" y2="122.811" gradientUnits="userSpaceOnUse">
<stop stop-color="#FF4E16"/>
<stop offset="0.458333" stop-color="#FF5A13"/>
<stop offset="1" stop-color="#FFB90F"/>
</linearGradient>
<linearGradient id="paint1_linear" x1="30.7021" y1="82.874" x2="36.7626" y2="86.0028" gradientUnits="userSpaceOnUse">
<stop stop-color="#FF4E16"/>
<stop offset="0.458333" stop-color="#FF5A13"/>
<stop offset="1" stop-color="#FFB90F"/>
</linearGradient>
<linearGradient id="paint2_linear" x1="30.7021" y1="30.7021" x2="111.297" y2="111.297" gradientUnits="userSpaceOnUse">
<stop stop-color="#FF4E16"/>
<stop offset="0.458333" stop-color="#FF5A13"/>
<stop offset="1" stop-color="#FFB90F"/>
</linearGradient>
<linearGradient id="paint3_linear" x1="103.621" y1="3.83789" x2="111.002" y2="5.31399" gradientUnits="userSpaceOnUse">
<stop stop-color="#FF4E16"/>
<stop offset="0.458333" stop-color="#FF5A13"/>
<stop offset="1" stop-color="#FFB90F"/>
</linearGradient>
<linearGradient id="paint4_linear" x1="89.8057" y1="3.83789" x2="97.1861" y2="5.31399" gradientUnits="userSpaceOnUse">
<stop stop-color="#FF4E16"/>
<stop offset="0.458333" stop-color="#FF5A13"/>
<stop offset="1" stop-color="#FFB90F"/>
</linearGradient>
<linearGradient id="paint5_linear" x1="75.9893" y1="3.83789" x2="83.3697" y2="5.31399" gradientUnits="userSpaceOnUse">
<stop stop-color="#FF4E16"/>
<stop offset="0.458333" stop-color="#FF5A13"/>
<stop offset="1" stop-color="#FFB90F"/>
</linearGradient>
<linearGradient id="paint6_linear" x1="62.1729" y1="3.83789" x2="69.5533" y2="5.31398" gradientUnits="userSpaceOnUse">
<stop stop-color="#FF4E16"/>
<stop offset="0.458333" stop-color="#FF5A13"/>
<stop offset="1" stop-color="#FFB90F"/>
</linearGradient>
<linearGradient id="paint7_linear" x1="48.3564" y1="3.83789" x2="55.7369" y2="5.31398" gradientUnits="userSpaceOnUse">
<stop stop-color="#FF4E16"/>
<stop offset="0.458333" stop-color="#FF5A13"/>
<stop offset="1" stop-color="#FFB90F"/>
</linearGradient>
<linearGradient id="paint8_linear" x1="34.54" y1="3.83789" x2="41.9205" y2="5.31398" gradientUnits="userSpaceOnUse">
<stop stop-color="#FF4E16"/>
<stop offset="0.458333" stop-color="#FF5A13"/>
<stop offset="1" stop-color="#FFB90F"/>
</linearGradient>
<linearGradient id="paint9_linear" x1="103.621" y1="118.973" x2="111.002" y2="120.449" gradientUnits="userSpaceOnUse">
<stop stop-color="#FF4E16"/>
<stop offset="0.458333" stop-color="#FF5A13"/>
<stop offset="1" stop-color="#FFB90F"/>
</linearGradient>
<linearGradient id="paint10_linear" x1="89.8057" y1="118.973" x2="97.1861" y2="120.449" gradientUnits="userSpaceOnUse">
<stop stop-color="#FF4E16"/>
<stop offset="0.458333" stop-color="#FF5A13"/>
<stop offset="1" stop-color="#FFB90F"/>
</linearGradient>
<linearGradient id="paint11_linear" x1="75.9893" y1="118.973" x2="83.3697" y2="120.449" gradientUnits="userSpaceOnUse">
<stop stop-color="#FF4E16"/>
<stop offset="0.458333" stop-color="#FF5A13"/>
<stop offset="1" stop-color="#FFB90F"/>
</linearGradient>
<linearGradient id="paint12_linear" x1="62.1729" y1="118.973" x2="69.5533" y2="120.449" gradientUnits="userSpaceOnUse">
<stop stop-color="#FF4E16"/>
<stop offset="0.458333" stop-color="#FF5A13"/>
<stop offset="1" stop-color="#FFB90F"/>
</linearGradient>
<linearGradient id="paint13_linear" x1="48.3564" y1="118.973" x2="55.7369" y2="120.449" gradientUnits="userSpaceOnUse">
<stop stop-color="#FF4E16"/>
<stop offset="0.458333" stop-color="#FF5A13"/>
<stop offset="1" stop-color="#FFB90F"/>
</linearGradient>
<linearGradient id="paint14_linear" x1="34.54" y1="118.973" x2="41.9205" y2="120.449" gradientUnits="userSpaceOnUse">
<stop stop-color="#FF4E16"/>
<stop offset="0.458333" stop-color="#FF5A13"/>
<stop offset="1" stop-color="#FFB90F"/>
</linearGradient>
<linearGradient id="paint15_linear" x1="118.973" y1="103.621" x2="120.449" y2="111.002" gradientUnits="userSpaceOnUse">
<stop stop-color="#FF4E16"/>
<stop offset="0.458333" stop-color="#FF5A13"/>
<stop offset="1" stop-color="#FFB90F"/>
</linearGradient>
<linearGradient id="paint16_linear" x1="118.973" y1="89.8057" x2="120.449" y2="97.1861" gradientUnits="userSpaceOnUse">
<stop stop-color="#FF4E16"/>
<stop offset="0.458333" stop-color="#FF5A13"/>
<stop offset="1" stop-color="#FFB90F"/>
</linearGradient>
<linearGradient id="paint17_linear" x1="118.973" y1="75.9893" x2="120.449" y2="83.3697" gradientUnits="userSpaceOnUse">
<stop stop-color="#FF4E16"/>
<stop offset="0.458333" stop-color="#FF5A13"/>
<stop offset="1" stop-color="#FFB90F"/>
</linearGradient>
<linearGradient id="paint18_linear" x1="118.973" y1="62.1729" x2="120.449" y2="69.5533" gradientUnits="userSpaceOnUse">
<stop stop-color="#FF4E16"/>
<stop offset="0.458333" stop-color="#FF5A13"/>
<stop offset="1" stop-color="#FFB90F"/>
</linearGradient>
<linearGradient id="paint19_linear" x1="118.973" y1="48.3564" x2="120.449" y2="55.7369" gradientUnits="userSpaceOnUse">
<stop stop-color="#FF4E16"/>
<stop offset="0.458333" stop-color="#FF5A13"/>
<stop offset="1" stop-color="#FFB90F"/>
</linearGradient>
<linearGradient id="paint20_linear" x1="118.973" y1="34.54" x2="120.449" y2="41.9205" gradientUnits="userSpaceOnUse">
<stop stop-color="#FF4E16"/>
<stop offset="0.458333" stop-color="#FF5A13"/>
<stop offset="1" stop-color="#FFB90F"/>
</linearGradient>
<linearGradient id="paint21_linear" x1="3.83789" y1="103.621" x2="5.31399" y2="111.002" gradientUnits="userSpaceOnUse">
<stop stop-color="#FF4E16"/>
<stop offset="0.458333" stop-color="#FF5A13"/>
<stop offset="1" stop-color="#FFB90F"/>
</linearGradient>
<linearGradient id="paint22_linear" x1="3.83789" y1="89.8057" x2="5.31399" y2="97.1861" gradientUnits="userSpaceOnUse">
<stop stop-color="#FF4E16"/>
<stop offset="0.458333" stop-color="#FF5A13"/>
<stop offset="1" stop-color="#FFB90F"/>
</linearGradient>
<linearGradient id="paint23_linear" x1="3.83789" y1="75.9893" x2="5.31399" y2="83.3697" gradientUnits="userSpaceOnUse">
<stop stop-color="#FF4E16"/>
<stop offset="0.458333" stop-color="#FF5A13"/>
<stop offset="1" stop-color="#FFB90F"/>
</linearGradient>
<linearGradient id="paint24_linear" x1="3.83789" y1="62.1729" x2="5.31398" y2="69.5533" gradientUnits="userSpaceOnUse">
<stop stop-color="#FF4E16"/>
<stop offset="0.458333" stop-color="#FF5A13"/>
<stop offset="1" stop-color="#FFB90F"/>
</linearGradient>
<linearGradient id="paint25_linear" x1="3.83789" y1="48.3564" x2="5.31398" y2="55.7369" gradientUnits="userSpaceOnUse">
<stop stop-color="#FF4E16"/>
<stop offset="0.458333" stop-color="#FF5A13"/>
<stop offset="1" stop-color="#FFB90F"/>
</linearGradient>
<linearGradient id="paint26_linear" x1="3.83789" y1="34.54" x2="5.31398" y2="41.9205" gradientUnits="userSpaceOnUse">
<stop stop-color="#FF4E16"/>
<stop offset="0.458333" stop-color="#FF5A13"/>
<stop offset="1" stop-color="#FFB90F"/>
</linearGradient>
<linearGradient id="paint27_linear" x1="30.7021" y1="46.0547" x2="31.7077" y2="53.5963" gradientUnits="userSpaceOnUse">
<stop stop-color="#FF4E16"/>
<stop offset="0.458333" stop-color="#FF5A13"/>
<stop offset="1" stop-color="#FFB90F"/>
</linearGradient>
<linearGradient id="paint28_linear" x1="55.6484" y1="40.7178" x2="70.1593" y2="55.2286" gradientUnits="userSpaceOnUse">
<stop stop-color="#FF4E16"/>
<stop offset="0.458333" stop-color="#FF5A13"/>
<stop offset="1" stop-color="#FFB90F"/>
</linearGradient>
<linearGradient id="paint29_linear" x1="89.3447" y1="86.3516" x2="90.6468" y2="93.7996" gradientUnits="userSpaceOnUse">
<stop stop-color="#FF4E16"/>
<stop offset="0.458333" stop-color="#FF5A13"/>
<stop offset="1" stop-color="#FFB90F"/>
</linearGradient>
<linearGradient id="paint30_linear" x1="78.6758" y1="81.0146" x2="93.1867" y2="95.5255" gradientUnits="userSpaceOnUse">
<stop stop-color="#FF4E16"/>
<stop offset="0.458333" stop-color="#FF5A13"/>
<stop offset="1" stop-color="#FFB90F"/>
</linearGradient>
<linearGradient id="paint31_linear" x1="46.0547" y1="58.0039" x2="60.5656" y2="72.5148" gradientUnits="userSpaceOnUse">
<stop stop-color="#FF4E16"/>
<stop offset="0.458333" stop-color="#FF5A13"/>
<stop offset="1" stop-color="#FFB90F"/>
</linearGradient>
<linearGradient id="paint32_linear" x1="30.7021" y1="63.3242" x2="32.1782" y2="70.7047" gradientUnits="userSpaceOnUse">
<stop stop-color="#FF4E16"/>
<stop offset="0.458333" stop-color="#FF5A13"/>
<stop offset="1" stop-color="#FFB90F"/>
</linearGradient>
<linearGradient id="paint33_linear" x1="42.2168" y1="83.5918" x2="55.6492" y2="97.0242" gradientUnits="userSpaceOnUse">
<stop stop-color="#FF4E16"/>
<stop offset="0.458333" stop-color="#FF5A13"/>
<stop offset="1" stop-color="#FFB90F"/>
</linearGradient>
<linearGradient id="paint34_linear" x1="50.8418" y1="91.1826" x2="64.926" y2="96.9364" gradientUnits="userSpaceOnUse">
<stop stop-color="#FF4E16"/>
<stop offset="0.458333" stop-color="#FF5A13"/>
<stop offset="1" stop-color="#FFB90F"/>
</linearGradient>
<linearGradient id="paint35_linear" x1="79.7539" y1="45.7236" x2="93.1863" y2="59.1561" gradientUnits="userSpaceOnUse">
<stop stop-color="#FF4E16"/>
<stop offset="0.458333" stop-color="#FF5A13"/>
<stop offset="1" stop-color="#FFB90F"/>
</linearGradient>
<linearGradient id="paint36_linear" x1="87.3691" y1="42.3066" x2="92.3918" y2="56.9743" gradientUnits="userSpaceOnUse">
<stop stop-color="#FF4E16"/>
<stop offset="0.458333" stop-color="#FF5A13"/>
<stop offset="1" stop-color="#FFB90F"/>
</linearGradient>
<linearGradient id="paint37_linear" x1="80.1748" y1="64.1172" x2="93.6072" y2="77.5496" gradientUnits="userSpaceOnUse">
<stop stop-color="#FF4E16"/>
<stop offset="0.458333" stop-color="#FF5A13"/>
<stop offset="1" stop-color="#FFB90F"/>
</linearGradient>
<linearGradient id="paint38_linear" x1="87.791" y1="60.6953" x2="92.8845" y2="75.3074" gradientUnits="userSpaceOnUse">
<stop stop-color="#FF4E16"/>
<stop offset="0.458333" stop-color="#FF5A13"/>
<stop offset="1" stop-color="#FFB90F"/>
</linearGradient>
<linearGradient id="paint39_linear" x1="59.5381" y1="71.4199" x2="74.0489" y2="85.9308" gradientUnits="userSpaceOnUse">
<stop stop-color="#FF4E16"/>
<stop offset="0.458333" stop-color="#FF5A13"/>
<stop offset="1" stop-color="#FFB90F"/>
</linearGradient>
<linearGradient id="paint40_linear" x1="64.873" y1="82.0908" x2="82.7247" y2="88.1817" gradientUnits="userSpaceOnUse">
<stop stop-color="#FF4E16"/>
<stop offset="0.458333" stop-color="#FF5A13"/>
<stop offset="1" stop-color="#FFB90F"/>
</linearGradient>
</defs>
</svg>
