<svg width="24" height="24" viewBox="0 0 24 24" fill="none" xmlns="http://www.w3.org/2000/svg">
<path d="M20.465 5.86313L20.4647 5.86257C19.805 4.47726 17.8285 3.24785 15.4507 3.95768L15.4487 3.95827C14.3074 4.29559 13.3079 5.02006 12.6161 6.01744L11.9999 6.90592L11.3836 6.01744C10.692 5.02028 9.69281 4.29591 8.55179 3.95849C6.16315 3.25823 4.19336 4.4802 3.53503 5.86257L3.53476 5.86313C2.54679 7.9333 2.89327 10.3391 4.8825 13.1304L20.465 5.86313ZM20.465 5.86313C21.4531 7.9336 21.1063 10.3397 19.1226 13.1314L19.1213 13.1332M20.465 5.86313L19.1213 13.1332M19.1213 13.1332C17.5605 15.344 15.3088 17.5732 12.0029 20.2079M19.1213 13.1332L12.0029 20.2079M12.0029 20.2079C8.69387 17.5688 6.44546 15.3202 4.88262 13.1305L12.0029 20.2079Z" stroke="url(#paint0_linear)" stroke-width="1.5"/>
<defs>
<linearGradient id="paint0_linear" x1="2.25" y1="3" x2="20.1925" y2="22.4377" gradientUnits="userSpaceOnUse">
<stop stop-color="#FF4E16"/>
<stop offset="0.458333" stop-color="#FF5A13"/>
<stop offset="1" stop-color="#FFB90F"/>
</linearGradient>
</defs>
</svg>
