<svg width="16" height="16" viewBox="0 0 16 16" fill="none" xmlns="http://www.w3.org/2000/svg">
<path d="M11.5999 14.6664C8.87811 14.6629 6.2688 13.5801 4.34419 11.6555C2.41958 9.73087 1.33678 7.12156 1.33325 4.39975C1.33325 3.58642 1.65635 2.8064 2.23146 2.23129C2.80657 1.65618 3.58659 1.33308 4.39992 1.33308C4.57215 1.33177 4.74408 1.3474 4.91325 1.37975C5.07679 1.40395 5.23756 1.44414 5.39325 1.49975C5.50275 1.53817 5.60032 1.60451 5.67632 1.6922C5.75233 1.77989 5.80412 1.8859 5.82659 1.99975L6.73992 5.99975C6.76454 6.10833 6.76157 6.22134 6.73129 6.32847C6.70102 6.43561 6.64439 6.53345 6.56659 6.61308C6.47992 6.70642 6.47325 6.71308 5.65325 7.13975C6.30991 8.58032 7.46205 9.73719 8.89992 10.3998C9.33325 9.57308 9.33992 9.56642 9.43325 9.47975C9.51288 9.40194 9.61073 9.34532 9.71786 9.31504C9.825 9.28476 9.93801 9.2818 10.0466 9.30642L14.0466 10.2198C14.1568 10.2453 14.2587 10.2985 14.3426 10.3743C14.4266 10.4501 14.4899 10.5461 14.5266 10.6531C14.5829 10.8113 14.6252 10.9742 14.6533 11.1397C14.6801 11.3073 14.6935 11.4767 14.6933 11.6464C14.681 12.4563 14.3488 13.2284 13.7692 13.7942C13.1897 14.36 12.4098 14.6736 11.5999 14.6664Z" fill="white"/>
</svg>
