<svg width="24" height="24" viewBox="0 0 24 24" fill="none" xmlns="http://www.w3.org/2000/svg">
<path d="M11.9997 4.47998C11.2442 4.47998 10.5056 4.70402 9.87741 5.12377C9.24922 5.54351 8.7596 6.14012 8.47047 6.83813C8.18134 7.53614 8.10569 8.30422 8.25309 9.04523C8.40049 9.78623 8.76431 10.4669 9.29854 11.0011C9.83278 11.5354 10.5134 11.8992 11.2544 12.0466C11.9955 12.194 12.7635 12.1183 13.4615 11.8292C14.1596 11.5401 14.7562 11.0505 15.1759 10.4223C15.5957 9.79407 15.8197 9.05551 15.8197 8.29998C15.8197 7.28685 15.4172 6.31522 14.7008 5.59883C13.9844 4.88244 13.0128 4.47998 11.9997 4.47998ZM11.9997 10.7867C11.5079 10.7867 11.0271 10.6408 10.6182 10.3676C10.2092 10.0943 9.89052 9.70597 9.70231 9.25159C9.5141 8.79721 9.46485 8.29722 9.5608 7.81486C9.65675 7.33249 9.89358 6.88941 10.2414 6.54164C10.5891 6.19388 11.0322 5.95704 11.5146 5.86109C11.9969 5.76515 12.4969 5.81439 12.9513 6.0026C13.4057 6.19081 13.794 6.50953 14.0673 6.91846C14.3405 7.32739 14.4864 7.80817 14.4864 8.29998C14.4846 8.95833 14.2218 9.58911 13.7557 10.054C13.2895 10.5189 12.658 10.78 11.9997 10.78V10.7867Z" fill="url(#paint0_linear)"/>
<path d="M11.9998 1.3335C9.92328 1.33523 7.93181 2.15862 6.46036 3.62383C4.9889 5.08903 4.15705 7.07699 4.14648 9.1535C4.14648 12.2668 5.89315 14.8735 7.17315 16.7735L7.40648 17.1202C8.68 18.9659 10.0462 20.746 11.4998 22.4535L12.0065 23.0468L12.5132 22.4535C13.9666 20.7458 15.3328 18.9658 16.6065 17.1202L16.8398 16.7668C18.1132 14.8668 19.8598 12.2668 19.8598 9.1535C19.8492 7.07583 19.0165 5.08687 17.5436 3.62148C16.0707 2.15608 14.0775 1.33347 11.9998 1.3335ZM15.7265 16.0002L15.4865 16.3535C14.3398 18.0735 12.8198 20.0002 11.9998 20.9535C11.2132 20.0002 9.65982 18.0735 8.51315 16.3535L8.27982 16.0002C7.09982 14.2402 5.47982 11.8335 5.47982 9.12683C5.47982 8.27061 5.64846 7.42278 5.97612 6.63173C6.30378 5.84069 6.78404 5.12193 7.38948 4.51649C7.99492 3.91106 8.71368 3.4308 9.50472 3.10313C10.2958 2.77547 11.1436 2.60683 11.9998 2.60683C12.856 2.60683 13.7039 2.77547 14.4949 3.10313C15.286 3.4308 16.0047 3.91106 16.6102 4.51649C17.2156 5.12193 17.6959 5.84069 18.0235 6.63173C18.3512 7.42278 18.5198 8.27061 18.5198 9.12683C18.5198 11.8602 16.9065 14.2668 15.7265 16.0002Z" fill="url(#paint1_linear)"/>
<defs>
<linearGradient id="paint0_linear" x1="8.17969" y1="4.47998" x2="15.8266" y2="4.48695" gradientUnits="userSpaceOnUse">
<stop stop-color="#FF4E16"/>
<stop offset="1" stop-color="#FFB90F"/>
</linearGradient>
<linearGradient id="paint1_linear" x1="4.14648" y1="1.3335" x2="19.8668" y2="1.33854" gradientUnits="userSpaceOnUse">
<stop stop-color="#FF4E16"/>
<stop offset="1" stop-color="#FFB90F"/>
</linearGradient>
</defs>
</svg>
