<svg width="32" height="30" viewBox="0 0 32 30" fill="none" xmlns="http://www.w3.org/2000/svg">
<path d="M16.6204 29.22C16.4446 29.3571 16.2282 29.4315 16.0054 29.4315C15.7825 29.4315 15.5661 29.3571 15.3904 29.22C9.83035 24.9 6.00036 21.18 3.32036 17.51L16.6204 29.22ZM16.6204 29.22C22.1704 24.91 26.0104 21.22 28.6904 17.51L16.6204 29.22ZM30.3261 4.96854L30.3264 4.9691C32.0418 8.48203 31.3973 12.5117 28.0837 17.069L28.0824 17.0708C25.4617 20.6987 21.684 24.3381 16.1603 28.6277L16.1591 28.6286C16.1152 28.6629 16.0611 28.6815 16.0054 28.6815C15.9496 28.6815 15.8955 28.6629 15.8516 28.6286L15.8505 28.6278C10.3196 24.3304 6.54914 20.6597 3.92635 17.0681C0.603329 12.5111 -0.0409762 8.48176 1.6743 4.9691L1.67457 4.96854C2.85109 2.55404 6.3245 0.479039 10.4829 1.67076C12.4651 2.24349 14.1946 3.47145 15.3887 5.15408L16.0004 6.01589L16.612 5.15408C17.8063 3.47125 19.536 2.2432 21.5185 1.67056L21.5204 1.66999C25.6642 0.461006 29.1483 2.55123 30.3261 4.96854Z" stroke="url(#paint0_linear)" stroke-width="1.5"/>
<defs>
<linearGradient id="paint0_linear" x1="0.00292969" y1="0.566711" x2="28.7154" y2="32.3931" gradientUnits="userSpaceOnUse">
<stop stop-color="#FF4E16"/>
<stop offset="0.458333" stop-color="#FF5A13"/>
<stop offset="1" stop-color="#FFB90F"/>
</linearGradient>
</defs>
</svg>
