<svg width="28" height="28" viewBox="0 0 28 28" fill="none" xmlns="http://www.w3.org/2000/svg">
<g clip-path="url(#clip0)">
<path d="M9.21678 20.5795C7.37486 20.5795 5.88184 22.0725 5.88184 23.9144C5.88184 25.7561 7.37486 27.2491 9.21678 27.2491C11.0585 27.2491 12.5515 25.7561 12.5515 23.9144C12.5496 22.0735 11.0577 20.5814 9.21678 20.5795ZM9.21678 26.0231C8.05205 26.0231 7.10787 25.0789 7.10787 23.9144C7.10787 22.7497 8.05205 21.8055 9.21678 21.8055C10.3813 21.8055 11.3255 22.7497 11.3255 23.9144C11.3255 25.0789 10.3813 26.0231 9.21678 26.0231Z" fill="url(#paint0_linear)"/>
<path d="M27.393 6.58479H5.74744L5.30612 4.11429C5.03409 2.59349 3.84207 1.40386 2.32079 1.13494L0.720724 0.853101C0.387159 0.793715 0.0689181 1.01617 0.00953244 1.3495C-0.0496138 1.68307 0.172604 2.00131 0.506169 2.06069L2.11222 2.34254C3.12561 2.52213 3.91893 3.31546 4.09853 4.32885L6.2685 16.5707C6.52472 18.0355 7.79744 19.1039 9.28448 19.1025H22.1578C23.5102 19.1066 24.7046 18.2213 25.0942 16.9263L27.9754 7.37548C28.0288 7.18918 27.995 6.98852 27.8835 6.83C27.7668 6.6765 27.5856 6.58599 27.393 6.58479ZM23.9233 16.5645C23.692 17.3422 22.9753 17.8743 22.164 17.8703H9.2907C8.39776 17.8726 7.63341 17.2302 7.48231 16.3499L5.96822 7.80459H26.5715L23.9233 16.5645Z" fill="url(#paint1_linear)"/>
<path d="M22.0898 20.5795C20.2479 20.5795 18.7549 22.0725 18.7549 23.9144C18.7549 25.7561 20.2479 27.2491 22.0898 27.2491C23.9315 27.2491 25.4245 25.7561 25.4245 23.9144C25.4226 22.0735 23.9308 20.5814 22.0898 20.5795ZM22.0898 26.0231C20.9251 26.0231 19.9809 25.0789 19.9809 23.9144C19.9809 22.7497 20.9251 21.8055 22.0898 21.8055C23.2543 21.8055 24.1985 22.7497 24.1985 23.9144C24.1985 25.0789 23.2543 26.0231 22.0898 26.0231Z" fill="url(#paint2_linear)"/>
</g>
<defs>
<linearGradient id="paint0_linear" x1="5.88184" y1="20.5795" x2="12.5515" y2="27.2491" gradientUnits="userSpaceOnUse">
<stop stop-color="#FF4E16"/>
<stop offset="0.458333" stop-color="#FF5A13"/>
<stop offset="1" stop-color="#FFB90F"/>
</linearGradient>
<linearGradient id="paint1_linear" x1="0" y1="0.843506" x2="16.7084" y2="26.4659" gradientUnits="userSpaceOnUse">
<stop stop-color="#FF4E16"/>
<stop offset="0.458333" stop-color="#FF5A13"/>
<stop offset="1" stop-color="#FFB90F"/>
</linearGradient>
<linearGradient id="paint2_linear" x1="18.7549" y1="20.5795" x2="25.4245" y2="27.2491" gradientUnits="userSpaceOnUse">
<stop stop-color="#FF4E16"/>
<stop offset="0.458333" stop-color="#FF5A13"/>
<stop offset="1" stop-color="#FFB90F"/>
</linearGradient>
<clipPath id="clip0">
<rect width="28" height="28" fill="white"/>
</clipPath>
</defs>
</svg>
